<mxfile host="app.diagrams.net" modified="2022-07-08T11:01:43.043Z" agent="5.0 (X11)" etag="I9_PLsiDFpLi2-j61lCI" version="20.0.4" type="github">
  <diagram id="bqCh3vnegORjJE6StwYy" name="Page-1">
    <mxGraphModel dx="918" dy="511" grid="1" gridSize="10" guides="1" tooltips="1" connect="1" arrows="1" fold="1" page="1" pageScale="1" pageWidth="850" pageHeight="1100" math="0" shadow="0">
      <root>
        <mxCell id="0" />
        <mxCell id="1" parent="0" />
        <mxCell id="jxUuRMMo5ToZTypyHaxn-1" value="&lt;font style=&quot;font-size: 13px;&quot;&gt;&amp;nbsp;&lt;br style=&quot;font-size: 13px;&quot;&gt;&lt;/font&gt;&lt;div style=&quot;font-size: 13px;&quot;&gt;&lt;font style=&quot;font-size: 13px;&quot;&gt;&lt;br style=&quot;font-size: 13px;&quot;&gt;&lt;/font&gt;&lt;/div&gt;&lt;div style=&quot;font-size: 13px;&quot;&gt;&lt;font style=&quot;font-size: 13px;&quot;&gt;&lt;br style=&quot;font-size: 13px;&quot;&gt;&lt;/font&gt;&lt;/div&gt;&lt;div style=&quot;font-size: 13px;&quot;&gt;&lt;font style=&quot;font-size: 13px;&quot;&gt;&lt;br style=&quot;font-size: 13px;&quot;&gt;&lt;/font&gt;&lt;/div&gt;&lt;div style=&quot;font-size: 13px;&quot;&gt;&lt;font style=&quot;font-size: 13px;&quot;&gt;&lt;br style=&quot;font-size: 13px;&quot;&gt;&lt;/font&gt;&lt;/div&gt;&lt;div style=&quot;font-size: 13px;&quot;&gt;&lt;font style=&quot;font-size: 13px;&quot;&gt;Data sample&lt;br style=&quot;font-size: 13px;&quot;&gt;&lt;/font&gt;&lt;/div&gt;" style="ellipse;whiteSpace=wrap;html=1;aspect=fixed;fillColor=#CCCCCC;strokeColor=#666666;fontColor=#333333;strokeWidth=2;rounded=0;fontFamily=Times New Roman;fontSize=13;" parent="1" vertex="1">
          <mxGeometry x="50" y="527" width="40" height="40" as="geometry" />
        </mxCell>
        <mxCell id="jxUuRMMo5ToZTypyHaxn-2" value="&lt;div style=&quot;font-size: 14px;&quot;&gt;&lt;font style=&quot;font-size: 14px;&quot;&gt;Attacker&lt;/font&gt;&lt;/div&gt;&lt;div style=&quot;font-size: 14px;&quot;&gt;&lt;font style=&quot;font-size: 14px;&quot;&gt;&lt;br&gt;&lt;/font&gt;&lt;/div&gt;" style="shape=umlActor;verticalLabelPosition=bottom;verticalAlign=top;html=1;outlineConnect=0;rounded=0;strokeWidth=2;fontFamily=Times New Roman;" parent="1" vertex="1">
          <mxGeometry x="55" y="617" width="30" height="60" as="geometry" />
        </mxCell>
        <mxCell id="SsE-gA1_7VhPRmj_9sqb-17" value="" style="endArrow=classic;html=1;rounded=0;" parent="1" source="SxUifweb3BAPk_Ef57uH-1" target="SsE-gA1_7VhPRmj_9sqb-19" edge="1">
          <mxGeometry width="50" height="50" relative="1" as="geometry">
            <mxPoint x="565.14" y="620" as="sourcePoint" />
            <mxPoint x="641" y="600" as="targetPoint" />
          </mxGeometry>
        </mxCell>
        <mxCell id="SsE-gA1_7VhPRmj_9sqb-18" value="" style="endArrow=classic;html=1;rounded=0;" parent="1" source="SxUifweb3BAPk_Ef57uH-1" target="SsE-gA1_7VhPRmj_9sqb-22" edge="1">
          <mxGeometry width="50" height="50" relative="1" as="geometry">
            <mxPoint x="564.004" y="630.0799999999999" as="sourcePoint" />
            <mxPoint x="641.14" y="650" as="targetPoint" />
          </mxGeometry>
        </mxCell>
        <mxCell id="SsE-gA1_7VhPRmj_9sqb-19" value="Member" style="text;html=1;strokeColor=none;fillColor=none;align=center;verticalAlign=middle;whiteSpace=wrap;rounded=0;fontStyle=1;fontSize=15;fontFamily=Times New Roman;fontColor=#009900;" parent="1" vertex="1">
          <mxGeometry x="640" y="567" width="60" height="30" as="geometry" />
        </mxCell>
        <mxCell id="SsE-gA1_7VhPRmj_9sqb-22" value="&lt;font color=&quot;#B90F22&quot;&gt;Non-Member&lt;/font&gt;" style="text;html=1;strokeColor=none;fillColor=none;align=center;verticalAlign=middle;whiteSpace=wrap;rounded=0;fontColor=#CC0000;fontStyle=1;fontSize=15;fontFamily=Times New Roman;" parent="1" vertex="1">
          <mxGeometry x="640" y="620.66" width="60" height="30" as="geometry" />
        </mxCell>
        <mxCell id="SsE-gA1_7VhPRmj_9sqb-27" value="" style="endArrow=classic;html=1;fontFamily=Times New Roman;fontSize=14;fontColor=#CC0000;" parent="1" edge="1">
          <mxGeometry width="50" height="50" relative="1" as="geometry">
            <mxPoint x="105" y="617" as="sourcePoint" />
            <mxPoint x="180" y="616.665" as="targetPoint" />
          </mxGeometry>
        </mxCell>
        <mxCell id="SxUifweb3BAPk_Ef57uH-2" value="" style="endArrow=classic;html=1;rounded=0;" parent="1" target="SxUifweb3BAPk_Ef57uH-1" edge="1">
          <mxGeometry width="50" height="50" relative="1" as="geometry">
            <mxPoint x="330" y="616.3299999999999" as="sourcePoint" />
            <mxPoint x="450" y="610" as="targetPoint" />
          </mxGeometry>
        </mxCell>
        <mxCell id="SxUifweb3BAPk_Ef57uH-4" value="&amp;nbsp; &amp;nbsp; Output" style="text;html=1;align=center;verticalAlign=middle;resizable=0;points=[];autosize=1;strokeColor=none;fillColor=none;fontFamily=Times New Roman;" parent="1" vertex="1">
          <mxGeometry x="335" y="590.66" width="70" height="30" as="geometry" />
        </mxCell>
        <mxCell id="IKF0CIoohc7Vr73QVWxk-25" value="" style="group" vertex="1" connectable="0" parent="1">
          <mxGeometry x="430" y="569" width="150" height="100.09000000000003" as="geometry" />
        </mxCell>
        <mxCell id="SxUifweb3BAPk_Ef57uH-1" value="Attack Network" style="shape=image;verticalLabelPosition=bottom;verticalAlign=top;imageAspect=0;aspect=fixed;image=data:image/png,iVBORw0KGgoAAAANSUhEUgAAARwAAACCCAYAAACU73dnAAAABHNCSVQICAgIfAhkiAAAIABJREFUeJztXXdYVMcXPW+pKgIqCoqCoiIqSlQQEDUWlNgVC8HeoiJYklijRmPsLRbA/sMowd5blNhi77EgFgQVLCiC9Lb77u+P3TfuupQFdhFxz/fNh+6+nZl335s77c45gBZaaKGFFlpooYUWWnwVkEgk9LnroIUWWnxF0DodLdQN3c9dga8VPM/T48ePcfnyZTx48ACxsbGQSCSoUKECbGxs4OzsjGbNmsHQ0JD7XHUUi8Wfq2iVkJ2dTXfv3sWVK1fw5MkTxMXFgeM4mJmZwdbWFq6urrC3t4euru5ns6EWWnxWpKSk0Pr166lRo0YEIM9UsWJFmjx5MkVFRWlHGnKIjY2lefPmUfXq1fO1Yc2aNWnJkiUUFxentaEWXxeOHDlCVatWVWgQ+nqgpragbi1AJ0xsqFVjUEVjxUajo6NDM2fOpMzMzBLRaHie/yz1kEgk5O/vT2XLllWwj1EZkGtDqf1OmNiQc31QWUNFGxobG9PmzZvpc9VdCym0Q81iQHZ2Nvn6+mLDhg0AAI4D/ja2Uem3/cSRSEyV/tvBwQEHDhxArVq1vrrnFh8fT3379sWpU6cAAIb6wMEyqtmwW1oksrKl/+7atSu2b9+O8uXLf3U2LAnQGl3DyM7OpkGDBmHHjh0AAIfawJI41RqKPDwSIwEA1tbWOHv27FfldOLj46lDhw64efMmAKCLCzA+vGA2XFI7EqduSf/dsmVLHD9+XOt0PgO0BtcwRo4cSZs2bQIAnDApuKORR9fUSGSLgZo1a+LWrVuoWLFiqX9+WVlZ1KpVK1y9ehVA0W0oOO727dvj5MmT0NHRKfU2LEkQfe4KlGYcPHhQbc4GAI6Us4GuDvDs2TNMmDChyPl9CViwYIHanI18HqdOncKqVauKnJ8WBYPWu2sIiYmJZGtri9jYWDSzBRbEFr2xCBB66aNHj6JLly6l9hneu3ePmjRpArFYrBZnIw+PxEgYGhoiLCwMtWvXLrU2LGnQjnA0hK1btyI2NhY6IvU6GwBoUlf6d8mSJWrNt6RhxYoVEIvFsKio/rwrlAcyMjKwZs0a9WeuRa7QenYNgOd5ql+/Ph49eqT2nlmAMMq5e/cuGjduXOqeY1xcHFlaWiIzM1OjNjQxMUFMTIx2AbmYoB3haAB3797Fo0ePNFqG0Ovv2rVLo+V8Lhw6dAiZmZnQ02AsPMcBiYmJOHnypOYK0UIBWoejAVy+fBkAUM5Qc2X8KbFRKKu04cqVKwAAx3qaK6OBtfRvabVhSYTW4WgA9+/fBwB8U0fzZd27d0/zhXwGCPc1J0Yz0ykAWJFgo1CWFpqH9vCmmnH+/Hnq3bs3AODXaM01FgFv376FkZERcVzpWYIgIjbCKQ5cuHABJ06cIHd3d21cjoahdThqQGpqKv31118ICAhAq1atir38lJSUYi+zNCE1NRUeHh6oV68eVq9eTUOGDIGJiYnW8WgAWqMWARERERQQEICgoCB8+PBB6ftOzsDEh5ob5Qg7VQBQpkwZjBs3Dg0bNtRYeZpGVFQUVq5cqWBLTe1QCZC3oQAjIyMMHToUfn5+sLOz07YRNUJrzAJCIpHQ8ePHERAQgL///htE0sPHIpEI5cqVQ3JyMgwNDZGRkYGaFsD6dM06HI7jWB10dHTg7+8PHx+fL+657t69mwYPHoz09HSFzzXpcITzVcLzKleuHDIyMiCRSNg1HTp0wLhx49C5c2ctr44aoF00VhHx8fG0bNkysrW1RdeuXXH8+HEQESpVqoQpU6agc+fOSE5OBsdxmDZtGgDg2RvN1We2pbRnbty4MftMIpHAx8cHEyZMILFY/MXQMMybN4/69euH9PR0CGtRTZs2BQAMFimPQNSFaw+lf318fKCjo4PU1FS0atUK06dPh5mZGQAgNDQU3bt3R926dbFs2TKKj4//YuxaEqF1OPng9u3bNGLECLK0tMSkSZPw9OlTAECzZs0QFBSEmJgYVK5cGUeOHAEA/Prrr/jxxx9RpkwZjdbrygPp34kTJ8LS0hIAYGJiAgBYtWoVunXrhsTExBLdODIyMmjgwIE0c+ZMEBFMTU1BRDAxMcHChQsBALEJmis/OU36d/To0Vi2bBkA4OzZs9DV1UV0dDS2bNmCZs2aAZBO9yZNmgRLS0v88MMPdOfOnRJt25IKrcPJAVlZWRQSEkItWrSgJk2aYPPmzUhPT4e+vj4GDhyIy5cv4+bNm9ywYcO4ixcvshFN165dMXv2bJiYmHADBw4EAAzT01wPbW5ujv79+2P58uUApEFswqL18ePH0aJFC0RGRpbIhvH27Vtq164dgoODAQAtWrRgazdz585Fhw4dWGNfWkf9Nvy1mjTPdu3awc7OjpswYQK+//57AMDvv/+O0NBQDBkyBNevX8fly5fRv39/6OnpIT09HRs3boSDgwNat25Nu3fvpuzs7BJp45IIrcORw8uXL2nWrFlkZWWF/v3749KlSwCAGjVqYP78+YiOjkZwcDDn6urKAcCzZ8/o+++/h0QiQd26dREcHAyRSMQBgJ+fHwDgVZz669kpSdpYRo0aBQMDA65fv35o27YtACAiIgK//fYbOI5DWFgYnJ2dcfHixRLVIO7fv0/Nmzdn9v3555+Zs2nUqBF8fX0hEom48ePHAwD+uan+OlwNl/4VnpNIJOI2bdoEe3t7AMCgQYMQEREBkUjEubq6ciEhIdyLFy8wZ84cWFhYAAD+/fdf9O3bF7Vq1cL8+fPp7du3JcrOWpRQnD17lvr27Uu6uroKtJRt27alvXv35rgekp6eTs2aNZNSXBoZ0f3795WuGTNmDAEgEfeR/rKoybbGR67epKQkVub9+/dJR0eHANDkyZNp3759jIpTX1+fgoODS0RjOHbsGBkbGxMA0tPTo82bN9Py5cuZzc+dO8fqKRaLqUWLFlJ+Z2P12dCojLSsjh07KlGOPn78mNXP3t6eUlJSlOyWmZlJ27dvZ3UTkr6+Pg0ePJiuX79eImytRQlCSkoKrVu3TonM3MjIiMaOHUthYWF5vjRDhw5lv9m1a1eO1yYnJ1OtWrUIAJUzLHqDcaz3sZ5nzpxRKvPHH38kAKSrq0vh4eF069YtsrS0ZL+ZMWMGfU7pl5UrVzKnWKlSJTp79iy9fv2aNXBvb2+luj169IjKlClDAMjavOg2rFrpI8fxixcvcrTFwYMHmc28vb3z5EG+efMmDRs2jAwMDBTeI2dnZwoODi4xPNQlBYXe5ktNTaVr167h3r17ePXqFTIzM1G+fHlYWVmhWbNmaNy4cYmM2nz8+DEFBARgy5YtSExMZJ/b2dnB19cXgwcPzjfoKyAggHx9fQEAkydPxtKlS3O9/t69e9S2bVvExcWhrCGw36Bw27wTTCLx8IX032vWrMG4ceOUyvzw4QPVq1cPsbGxcHd3x8mTJ/H69Wv06NEDN27cAAD06dMHf/75J8qVK1dszyY7O5vGjRuHdevWAQDq1auHI0eOoE6dOhg8eDC2bdsGIyMjPHr0CJaWlkr1OnDgAPXt2xfZ2dmoWgnYIi6cDQcgEnGJ0m3ww4cPo0OHDrnaYMaMGTR//nwAwMqVKzFx4sQ87fXu3TvatGkTAgMDER0dzT43NzfH6NGjMXr06Bzv7XMjJSWFrl+/jjt37uDNmzesHdeoUQNOTk6fV2aH53m6ePEi9e3bl/U6uSVzc3P6+eef6fnz55/dw0skEjp06BB5eHgQx3EKagg9e/ak0NBQlet44cIF0tPTIwDk7u6u0vbzvXv3qHLlyqzcNt8UrKfWEX2065o1a/Is788//2TX7tmzh4iIUlNTqU+fPuxzR0dHevnyZbE8l4SEBHJ3d2dlu7u7U0JCAhERnT9/nn2+ePHiPOtz8OBBZneg4CMd4XeGhoYqPW+xWEweHh5sxPjvv/+qZK/s7Gzat28ftW3bVqE96OrqkpeXF124cOGzK0fwPE9nz56lPn36KC0jfJoqVqxIkyZNomLffIiOjmYPQD5VMpbKnLjZg+xrgcoYKEucTJ06lTIyMordyO/fv6clS5awaY2QzMzMaNq0aQV2hq9evWIyL9bW1gXSOoqJiaFOnTop1KOOZe4Np803ina0srKif/75J9/yJBIJW1uoUaMGpaamkvD5zJkzWX6WlpZ069YtjT6TJ0+eUL169ViZY8aMYTs6YrGYHBwcCADVq1ePsrKy8q3L7du3qXHjxgp2cayXuw2/qaNoQycnJ3rw4IHK9xwXF0c1a9YkAGRhYUGvXr0qkL3u3btHY8aMUZK1adKkCf3vf/+jtLS0Ym8Tjx8/Jjc3N6V2bGYCaibXjj+V2eE4jvz8/HJc01I7du/eTSYmJio1FPlkXO5jhe3t7Sk8PLxYDCzMqz8dhTk5OdGff/5ZKOeXlZXFGrKhoSHdvHmzwHnwPE/btm1TSQRPSBUrVqRp06ZRQWJqbt26xUZyMifDsG3bNtLX1ycAVLZsWdq3b59GnsnZs2epYsWKrNNZtWqVQjn+/v7sHk+ePKlyHTIzM2nx4sUqieAJqVatWrRy5cpCbV/fvHmTDA0NCQC5ubkVak0mISGBVqxYQbVr11bsrCtVoqlTp9KzZ8+KpV2sW7dOoU3Uq6FaOzaRa8e1a9emGzduaK6+wcHB7OU1KlO4RTuhsubm5hpzOpmZmRQcHEwuLi4KD9XAwIAGDx5M165dK1K5Pj4+LE/ZtKXQ4Hmezp07R+PGjSNHR0eFl0BHR4dsbGyof//+FBQUVOheUKivvr4+PXnyRCGPixcvKkzxFi1apNZh/qZNm9j0x9jYmI4dO6aQ97t376hChQoEgDw9PQtVbnZ2Nu3du5eGDx9O9evXV5hu6evrk729Pf3www906NChIkddBwUFsbzHjRtX6LwkEgkdPXqUvvvuO4V3VCQSUa9evejUqVMam24tWbLko6Mr5I4fx31ccL969ar663ngwAESiUQEgOpbF22HQJhqWVhY5Lo7UBhER0fTjBkzqEqVKkpTkIULF9K7d++KXNb//vc/lq+fn5/aDc3zPCUnJ1NCQoLajiS8f/+eKlWqRACoa9euSnlGRUVRw4YN2X0NGTKkyNNeiURCkyZNYnnWrFkzx3CBkSNHEgAqU6aM2tb4JBIJffjwgRITEzXSaIUQBwC0bdu2Iuf/6NEjGj9+PJUvX17hvW3YsCGtXbuWkpOT1XYP8qNJeYXSwqQK5T86nbt376rPzm/evGEvrKpDr/ySob60sh4eHkV+KU6fPk29e/dWWvRyd3en/fv3q63h3rhxgw2pW7ZsqdJaQ0nBhg0bmF0OHz6sVO/ExESFdaVWrVoV2kEnJydT9+7dWV5ubm45BsJdu3aNdWJz5879YmyZkZFBzs7OzFH+999/aql7UlISBQQEUP369RXeYxMTE5o4caLS6LSguH//PptCt7BXTzsWnI6Dg4P6tv2FXQ1DffUFXMlPrzZt2lTgiiYnJ1NgYKBCzwyAypcvT35+fmqfrr19+5asrKwIAFWrVo3evHnzxTQQQLow6+joSADIxsaG0tPTleqfnZ1NEydOVFjvyC8G6VO8ePGCLQADoIEDB+Y4WuJ5npo3b87WAj7HRkJREB0dzUbSNjY2aj3IyfM8hYaGUo8ePRR2UjmOo86dO9OxY8cKHEMlFotZcGqVCpppx7Nnzy66DWQvHAHqreQJExvq4PjxxVZ1FPLw4UMaN24cCxATUoMGDSggIECtw08BYrGYbW3q6+vTpUuXvqjGIeDKlSvMXr///nuu97Bu3ToWlGdsbEx///23Svd79epVsrCwYI1j/vz5uf5u48aNrC6HDh36Iu155swZZqfOnTtrJJAyKiqKJk+ezNa5hFS3bl1auXIlffjwQaUyZTbWSDsWnE758uUVIt4LBV9fX414xU+945EjR3KtqEQioQMHDpC7u7tS7IynpyedOnVKoy/szz//zMpcu3btF9k4BAwfPpxNBfLaEQkNDSVTU1NmZ9ncP1fs2LGDTTfLli1Le/bsyfX6+Ph4MjMzIwDUpUuXL9qeS5cuZe/GnDlzNHYvqamptGnTJoXRIwAqV66cStHwHTt2JCDv0IGiJJEsPiy/90QeShGEEomEKlWqhA8fPmiM/Gi6eSRuPQa8vLywc+dOhTrExcXRxo0bsW7dOjx//px9XqVKFYwcORJjxoyBlZWVRiMft2/fTt7e3gCA4cOH43//+1+JixAtCGJjY8nW1haJiYno3bs39u7dm+v9PHz4kLp27YqIiAgAgK+vL1auXAk9PT2F38yZM4d+++03EBGqVauGQ4cOwdHRMdd8fX19KSAgAAYGBrh//z7q1q37xdqU53ny8vLC7t27wXEcjhw5olEFVJ7n6cKFC1izZg327dunQBDWvn17jBs3Dl27dlWICH716hVVq1YNgGZJzDwSI+Hk5ITr16+rdP9KFz169Ijq1ZNqc2i6ojY2NoiMjOQA4Pr16+Tv74+dO3ciIyODXefi4gJfX1/069cPBgYGGn9J7969Sy4uLkhLS4OTkxPOnz8PQ0PDL7ZxCFi9ejUJp69PnjyJjh075npPcXFx1KdPH5w9exYA0LFjR+zatQumpqZceno6DR8+HNu3bwcgJco6dOgQqlevnmt+//33HzVr1gwSiQQzZszA/Pnzv3h7JiUlkbOzM8LDw2FqaoqbN28Wi2RwTEwMrVu3Dhs2bMDbt2/Z59bW1hg7dixGjBgBMzMzbu/evYzMX9PtWFdXF4mJiSodl1G64K+//qIBAwZAVwc4aqR5Pt61a9ciKCgI165dY98ZGhri+++/h5+fX569prqRkJBAjo6OePr0KSpXroybN29qfDRVXMjOzqZmzZrh7t27sLOzw507d/J04JmZmTR27Fhs3rwZAFC/fn1s2bIFEyZMYIoKvXr1QnBwcL4vWsuWLenChQuwsrJCeHh4sZ7j0iQePnxITk5OSE5OhoODAy5dulRs95aRkUG7d+/GmjVrlNrOgAEDIBKJsHHjRthZAasSNd+Or169Cmdn53zvXUm1QZjGWJsDSFVz7XKAj48P+3fNmjXh4+PDvPSWLVs0XwEZJBIJdevWDU+fPoWuri527dpVapwNAOjp6XH//vsvtW7dGg8fPsSqVavyvN7AwIATJIsnT56M8PBwuLq6gud5AMD06dMxf/58xv+TG7Zt20aDBg0CACxfvrzUOBsAsLOz4/bt20eenp64c+cOxowZA57nKT+bqAPyo+6rV6/SmjVr2OxA6CQAoFZVAIk55aBevHr1SqXrlAi4srKyAACG+uqtUF7Q19eHl5cXzp07h6lTp3JmZmbF/lLOmTMHx44dAwAsWbIEbdu2LTUNQ0Dr1q25AQMGAJCy6sXExOS52CcSibhJkyZxM2fOBMdxzNmMHDkSCxcu5PJrWElJSTR58mQAgLu7O/r27VvqbOrp6ckJjI/btm1DYGBgsdfB2dmZCw4O5kJCQlC/fn2F7zSpGgIA+nrSv/LLIHlByeEYGkr1adMy1Vep/JCVlYWdO3fCxsYGvXv3pjNnzhTridoDBw7QvHnzAADe3t746aefSl3DELBkyRIYGRkhJSUFU6ZMyff6ZcuW0fz580FEEImkr8umTZswbdq0fLeE58yZgzdv3kBPTw+rV69Wzw2UQMybNw/u7u4ApBzTxcmwmJKSQoGBgdSgQQPq27cvwsPDFb5fbqs5ilsAyMqW/i1XrpxK1ys5nNq1awPQrOJATjA0NIREIsHevXvRtm1bNGrUCIGBgRqJsZHHw4cPafDgwSAiNG7cGJs2bdJkcZ8dlpaW3OzZswEAISEhkGfYk0dWVhaNHDmSJk2aBJ7n0aBBA1y6dAnNmzcHACxatAh9+vRBbqeHw8LCSHAy48ePR4MGDUqtE9fV1eW2b98OKysriMVi9OnTB69fv9boe/vkyROaMGECWVpaYuzYsXjwQMqqX758eQBgncPTl5qsxUcIRP75QcnhODo6AgCoGHy0ra0t7OzsAAAGBgaYNWsWhB2ysLAwjB07FpaWlhg/fjw9fPhQ7TVKSkqiXr16ISkpCRUqVMD+/ftL1RpDbhg/fjyzu5+fHz49Rf3+/Xvy8PBgztfDwwOXLl2Ci4sLd/bsWUY2vn//frRq1QrR0dFKz2b8+PEQi8WoWrUqBAdXmlG5cmVu79690NfXx+vXr9GvXz+o+xgMz/N09OhR6tSpE9na2mLVqlVITEyEjo4OPD09MWLECCQnJwMAhg4dCgB4qtrSSpFgYGDAuKDzg5LDsba2hrm5udorJY/xxtJhnqurKw4cOIDy5csjMTERBw4cwI0bNxAaGooePXpAJBIhKSkJq1evhp2dHTp06EAHDx5Uyzkpnudp6NChCA8Ph0gkQkhISLFsa5YEGBgYcGvWrAEA3Lt3D2vXrmXfPXr0iFxcXHDmzBkAUod09OhRmJqacgBQtmxZLiQkBHPmzAEA3L59G82bN4c8j++uXbvo1KlTAIClS5fC2Nj4q7Crk5MTFxAQAAA4f/48pk6dqpZ8P3z4QH/88QfZ2tqiS5cuTBPNzMwM06dPR1RUFEaNGoWgoCAAQN++fbFkyRI2ytEUhOla8+bNixayMnXqVOkBsnKajTQ+e/YsAdI1FOEzLy8vtn7z7NkzmjZtGjtEKiRra2tatGhRkU6CL1iwgOU3b968LzrytbAQzsuZmJhQbGwsnTp1ioXT6+rqUkBAQJ522b59O+PyLVOmDO3evZtSU1OpRo0aBNlh0OK4j5IG4TQ8ANq+fXuhbRAWFkY+Pj5kZGSk8P43bdqUgoKCKD09nYiIoqKiGPdQgwYN2DKEjPqD7Kw02463bNlStOccFRXFjhOou5JOdh+P4csvDMuz0clY/BnS09Ppzz//JCcnJwXDGxgY0NChQwvMkn/ixAl2Yrlnz56fnfLxc+H58+eMi6dFixbs5L2JiYnKpFhXrlwhc3Nz9ky+/fZbdjTiaxWLS09PZ4dmy5YtS/fu3VPZDmKxmPbv30/t2rVTeNf19PTI29tb6Uxfeno6NWnShJ1rkl96OH36tMbPUpmZmeV4KLjAGDVqlPTFEWnmlOmnTHNisZhRJejo6JDMWEq4evUqDR48mB25F5KzszNt27Yt3xPIkZGRrDews7Mr+sGzLxyyA50s1a5du0A0nIDUcX1K/SkjAPtq8fz5c3Z2rG7duvkeuIyLi6NFixaRtbW1gh0tLCxozpw5lNsitLx6yN69exWu4Xme2rdvL3VGZTXTjj9lciw0EhMTGTVD1UrqqaxIxhiWkxwIID3gJ9AwmpmZ5UnO9PbtW1qwYAEbvgupcuXK9Msvv+RI8pWWlkbffPMN6w2Ki/K0pCIpKUmBD8fIyIhiY2MLZZOkpCQFErTmzZsXOq/Sgn/++YeNpLt3755jGMHt27dp+PDhSnS4rq6uFBISkif/kuxQMQEg2TKIEp4/f85IvtQ1tRJ4rb799lv1npb/999/2WngamZFq6zgbOrVq5cn+fidO3cY6bSjo2O+w7Xs7Gzav38/8+RCyom2ccCAAQQZjYKmuHwLCp7nKS4ujsLCwuju3bsUHR1dLNKxz549y5Fbef369YUqW17LSUg1a9Ys0HSisJBIJPT69Wu6d+8e3b9/n968efNZ9bfksWjRImYPYa0wOzubduzYoURmbmhoSEOHDlWJM/jy5ctslN++ffs8N1J27drFHF9RyfQEZ1OtWjWKiopSv41PnjzJFgYLM73q4vLRoLa2tiox38sW2ggADRs2TOU1lgcPHpCfn5/SIlv9+vUVZFJ++eWXz/oyZmRk0LZt26hHjx5K1KiQvXgtW7akuXPnFlgpQBVcunSJlSsSiWjx4sUCDSlVrFixQGoUgHQdwcbGho1sNm7cyNaDypcvT0ePHlX7PSQkJNAff/xB7u7uSjSdAMjU1JQ8PDzI39//s06beZ4XeJuJ4zgaNGgQVatWTaGuNWrUoAULFqi8CRIbG8sEDq2srFT6XXBwMHM6BnpF4yavVq0aPX78WHM2/ffff9n0CgCZGqlWYXk9JXd39wI1np9++on9NjAwsEA3lxttI2QPKCee3eJAZmYmzZ8/X4HAPL+kq6tL3t7eauOB/uuvv1gHUq5cOdq/fz8BQEREBPu8oOsvv/32G3NewgL+mTNn2FqZSCSilStXqmVxPj4+nnx9fZWkV/JK5cuXp59++umzOZ5Tp04pkccBoDZt2uQqJZ0bxGIxtWnTRuo4DAwKtGFy6NAhhXdPVflk+Xbs6upKT58+1bwdExMTaeTIkcxLyiczE5CVORRkYYRkYmJCAQEBBR7iZmdnM8Y9PT09Kky4OM/ztHPnTiUZVsiGofv37y+W6Qsgpb0Q1o+E1LZJ3g9cXhvIxMSEgoKCCt1oeZ5X0KWqXr063b59WyGvWbNmsZ5YVRmcZ8+esfWHH374QeE3jx8/JltbW1bmmDFjisQJffz4cYXRga5O3vbr1gKMJAqyKV5OEsmaQEZGRo47q4B0fbKwUivyJPUyBsUC4e3bt+Tt7a1AageAOA5U2TT3dmxkZESLFy9WG1e4yoiKiqKff/5ZabH20+To6EirVq0q0tGEt2/fsnKqVq1a4OlFZmamAvH1yJEjlUYXwnA2J8JvdeHs2bMKPXJBh7JGZT7Wd+rUqQV2OmlpadS3b1+Wh5OTU462TE1NZSNZV1dXlTqJXr16SXvLXKZi8fHxCutr7du3LxQX8Lp161R2NHmtIYpEIgoODtbYs46OjqZffvlF6T2zsbGhwYMHs/8PHTq0wM9RpmFPAEgW61NoPHnyhH766SeFkIackr29Pa1evbpAumgaAc/z9PTpU9q/fz8FBgbSihUraNOmTXTixAm1SLMIuH79OhuhFFSITNbjEgAKCQkh4OP6ieCIhKSvr0+DBg1Su97OuXPnmLMxMyn8gl2rxh/rOm3aNJXr+OrVK4Vetm/fvnlqXcl6lcGqAAAgAElEQVS2VgnIP6BLxntMAPIMEszKyqLRo0eza21tbQu0BiBbyCagaHJFtat9dDp//fWX2p/zp9K5HMeRh4cHHT58mDlv+RGKzImqhLCwMLY26eTkpDYCeqEd79u3jwICAhTa8fv37z+vk/lckNeFkvEt5wt5iRSZKoESrl+/TkOHDlWacgkKnUUNaHr79i3r6dTBD/1d8491/DTmIifcvn1bQaFy5syZ+faqPM9Thw4dpHWuUiXX+JHMzEw2XWrSpEm+oyGe52nlypVsSl6hQgWVpjfXr19npOUOtYtuQzsrqS0MDAwKHG/0KVJTU2nDhg1KMUjGxsY0btw4evTokVL+ny4VyEju80RiYiKTTM4vXEQLNUFe+TK/nvfKlStsy7BNmzb5rtO8e/cux6ArQYO8sFKswjSmsLsCOSUhUrty5cp5TgMPHDhA5cqVY42rINOI8PBw1lPn5qyF7V6O4wq0vnb06FG2q6Srq5unXFBGRgY1aNCAAFCNKuqzYWXTjx1LYdbwIiMjadKkSUqqCnZ2dirtisXGxrKOwNLSMs94JZ7nSZi26ujoUGhoqNbZFAcyMzPJ1dWVNaDcFt3evHnDtgyrV69eoOAzsVhMBw8eZD28kEQiEfXo0YNCQ0NVnnfLGiGhEGs2+SUDvbxHbosXL2YjiSpVqhRK4mby5MnsJf80liYmJoYN7wcNGlTgvO/du6fg3CdNmpTjYuSaNWs0ZkMh34LINp88eZK6deumsHEiEomoe/fuBXYEqnaKCxcuZGXJ/q1FceHly5dMA8nKykqph8/OzqbWrVszp1QUPfGHDx/S+PHjlbYz69Wrp9Ii2vfff08AqI6l5s6xmJiYKCzKZ2Zmknyou729faFHZ0lJSWxHqE2bNgqOVrg3Y2PjXEPu80NsbCy1aNGC1bVbt24K98LzPJtGaMJ+7s0+jnLys8OaNWvIzs5O4T2oUKECTZo0iSIjIwv9jskvhMvWdhQQGhrKppOyUY4WxY3z58+z4X67du0Ueobx48ezB1gYZc+ckJycTGvXrlVS+zQyMiIfH58cY3ri4uJYHTXRWE6YfNQE2rx5MwllCs4WkGo/FTXuRLbQTgBox44dBEh33ITPVqxYUaT809PTSYj+BqTSscL6hHw5mrKhkP+tW7eU7uPRo0c5ii82btyYNm7cmOfCu6rgeZ6GDRvG8pbtQgFQPItVr169r/7M32eFvDi70DPI1igIgLAjolbwPE9nzpyhPn36sF5HSG3btqU9e/Yw5ycf5q+pxtLmG7ApTXh4ODuDBoB+/PFHtYT28zzPnJilpSUlJCSQvb09AdLT/uqIYeJ5Xgj5JwBkbm5OV65cEQTm1Lp282kSNLIFxymRSOjw4cPUsWNHhTgVXV1d6tu3L+XGjlgUpKWlUdOmTQmQBmKGhYVRRkYGO21uZGRU5MXtkoQvkhhJ1jPgzz//BAAsXrwYc+bMQXp6OlxcXHDu3DmNalhFR0fT+vXrlbSBqlevjjFjxiAuLg4rV66EbQ1gTZJmJTqqV6+OlJQUfPjwAbq6uggICMDo0aPVdu937tyhpk2bQiKRoH379hCItU6fPo127dqprZzdu3fT4MGDkZ6eDkNDQ9jZ2eG///7TqKbSSrtIHL8KeHp6ws3NDYGBgXj69Cn7vnLlyhg1ahTGjBmDGjVqaOx9ioqKombNmiE+Ph62trZwdXVl7/bu3btLDfl8cnIyfbE3kpaWRi1btsStW7fAcRyICObm5rh16xYsLS2LTRto79698Pf3x+XLl9nnIpEIPM+jWwvAL0zzmkAAUKZMGXh7e8PGRv3lHT16VOH+GjVqBC8vL7WX8/LlSwQHBzOaTECzIm6A1IbC8xLg5OSEcePGoV+/fsUmgnjixAn67rvvQHLcvpMmTcKyZcu+2DaaE7iUlBQyMjL6Im8qMjKS6tWrh+zsbHAch6NHj6Jz586f5V6uXr1KU6ZMwfnz59nLWxyNpbSjuGzIcRycnZ2xePFifPvtt5/lHfLx8SGB7rV27dp49OiRgnxvaYDul+psAGDDhg3IzpbqVBAR/P39IZFISEdHp9juKSYmhtavX48ePXrgzZtilrqQg6mpKapWrQqOU/+tp6enIyoqiv2/Ro0aTB1A3YiNjcX79+81kndeICJcuXIFvXr1wpQpU2js2LGoWbNmsb1H7969o2bNmrH/R0VFManl0oQv1tns2bOH+vTpA0Cqb33r1i0AwK+//oq5c+dq/L7Onj1L/v7+OHDgAMRiMfu8Xbt2KFOmDI4ePQrn+sDcV5qdUhkYGCAzUyoi1qpVK+zbtw+VK1dW2/1LJBJycnLCrVu3YGhoiIyMDFhbWyM8PBxly5ZVWzkpKSk0YMAAHDx4EABgbGyMpKSkYhnhNG/eHJUqVcLx48fZ5yKRCN27d4efnx/atWuXr8JoUSAWi8nDwwOnTp2Cvr4+zM3NER0dDTMzM9y8eRPW1tZfbDv9FJqlddcQHjx4QIIMRpMmTXD+/Hn069cPgFRRUrZLpHakpKTQ2rVryd7entq0aYM9e/ZALBajfPny8PX1xYMHD3D69GnO09MTAPBfhCZqoYi2bdti/PjxAKRKAc7OzlDnrsaGDRuYM1+6dCk4jsPz58+xePFidRWBFy9eUMuWLZmzGTBgAASF0Onmmps2+hpJ83Z3d8fx48e5x48fY8KECTA2NgbP8zhw4ADc3d1hb2+vUY20GTNmsMX4VatW4dixYyhbtizi4uLQu3dvqIUzuATgi+QOT0xMZGd4KlWqxALbkpOT2ZatsbGxWnWsHj16ROPHjycTExOF7XA7Oztas2aNUoyEjLpUo9viwpaujJMYa9euZdv1JiYmdOLEiSLff1xcHOO06dGjBwGAcAjTwMBALbwoV69eZcGcHMcxVjwhBkikZk7tnOJwjhw5onAfycnJTM0Scs/b2NiYJkyYoFbyKfnDsrKgTQCALO6JgKKfDNeikOB5nrp3707I5VzJkydPmFOoX79+kYKlJBIJHTx4UCkmQ0dHh3r27En//PNPrnnzPE/NmjUjAPRdc81FGnMcRxEREaweoaGh7P51dHTylXnJDwKRvqGhIaOTlHdCsmdRaOzcuZNx6QgyM8J3SUlJ7MyVJh1OlSpVcj15zfM8nTp1inr27KnEA9WpUyc6duxYkeKdwsPD2T02bdpU6bDwjz/+yMorDPeNFkXE3Llz2QOQHR5UwpEjR5iD6N27d4E5R+Li4mjx4sVUs2ZNhRescuXKNH36dJVP6gYFBWlslFPH8mM08aflfhoE6OfnV6gAvRs3brBGNnv2bIXfy5N3F5Y+9LfffmPPqWrVqjky140bN44A1RkmC5IEcjMZKVm+iIqKoilTpjBnK6Q6derQH3/8ka8qw6dITk5mjJQVK1bMkR84KyuLBV7q6+sX6aiOFgXE0aNHWQOQ8RPnCoHyEnk4pk9x48YNGjp0KCONF1Lz5s1p69atBeYfSU9PZw1f3eepIBvdXLhwIcc6fXrMwcPDo0ANgud5cnFxIQBUq1YtpZ5XLBYzLaQ6deoUyDbp6enUv39/VrcmTZpQTlLBgLSRC1xCXVzUZ8NvHaRlm5qaFpjULS0tjTZv3qzE3liuXDkaM2YMhYWFqZSfwLEtEonynP6+fv2anWmrUaOGWrmmtMgFT548IVNTU4IspD6/xTuJRMKmXiKRKFdRt8zMzBzJuAwNDWnIkCFF7lHOnz/PevGuruppMEIdZcPtXJGZmUnDhw9n1zdo0EDlNRd5/iGB8/hTyJ+Gl6mY5os3b94wRwZIDySmpKTk+Vv5YyzqdNgAaOvWrYV+vjzP0/nz58nLy0uBdAuQnvHbv39/rnScS5cuZdeqovp68eJF0tPTI0DKDV7sNJ9fE1JSUthisImJicoLdh8+fKC6deuyIav8qV6BBvJTxQRra2tauHChWnsRgScYAHUuYi8t5NOkSROVDg/yPE9Lly5lTs/MzIzOnz+f5+8+fPjA7PLdd9/lee2QIUMIkKpL5kfyfvfuXQVKClWpUiUSCVOUgBqcjpCPt7e32hRXY2JiaNasWUrvk5WVFS1atEiBevX06dNscb979+4q10He8RaE8bFUIDs7m0JDQ2nu3Lnk6elJLi4u1KRJE2rdujUNGjSIVq9erTaZVy8vLzaFOHToUIHyvH//PiOh+uabb+j48ePk6empcPiS4zhyd3enAwcOaETLiOd5klegqF654I2mo9PHl/ibb74psIzLwYMHmR309fXz5IARTtzr6+vn69zfvHnDTlPLyMZyxOHDh9niqL6+foG1qNPT0wXnRwCoqW3Bbdiw5kcb9u7du0hk7rkhN/paQ0NDGj58OB0/fpwxQKqixikPnucF7iEClJVrC4PMzEw6efIkzZ8/n7XjZs2akZubGw0bNowCAgLo9u3bn08KOy4ujubPn69AW5lXcnZ2puDg4EKfKl62bBnL69OFS1Wxbdu2HOsm0ECqc/s8NwgnouWH3t/UKbhEh4eHR4GdjYDbt28rEN9PmzZNycHevXuXOWNVe9GVK1eyPHPauVu+fDlbezMzM6N///23UPVPT08nYUQlpA6O+dtQWK8Rko+Pj0aczae4du0aDRo0SEmSGpCGFHyqmKEKUlNTycHBgYCiKce+fv2aZs2alS+BupCaNm1KmzdvLhCfeJGxd+9eZcWDHKgD3Jspy0w0b968wEfsT506xV7+rl27FtjLPnz4kPz8/JT4TCwsLEiTQVx54ebNm0r8t4BUnsOhNqiZLaimhVSyQ/57Y2Nj2rBhQ5F7mtevX1Pz5s1Zvp6engprKMJCc/Xq1fNdWxGQnZ3Nprz169dnjTkrK4vkSezr16+vlridgwcPUtWqVZVsWL2ydOTTpK5UJfbT762srHJdy9MkYmNjad68eWyEKaSqVavSb7/9VmACs6dPnzJq04KGfvA8T//73/+U4slyGnW3+Ua5HTdq1Ehl+aBCQywWK7w4+gXg523XVNGrq8qrK08+VKdOHZWHnmKxmPbv30/u7u5KfCbC/FpHR0cjvCaqQiKR0PHjx6lz5845anzJJyGwUJ0SHWlpadSvXz+F3ismJkZQMSDgI9mWqpCRoRMAWr58OcXHxzOicADUsWPHAm8b54WMjAzaunWrgvPMLbm5udGOHTuKt3f+BPKL8AL9rZD09PRowIABdPnyZZU7lGPHjrH3u0+fPir9Lj09nXEjA6Cyhqq3Y3nyfh0dHVq9erVmbCkWixWGsU52hVu0E0irOY4j2RQnT8MIQXPlypVTSSXz3bt3tHDhQiUS9CpVqtCMGTMoOjqa4uLiWGxNlSpVKCYm5rO9gAKSkpLo1KlTtHr1apo5cyZNmzaNlixZQrt37851q1gd4HlemKKyUZ8wepU5igJDoB0tV64c1apVi+Xt6+ur0V2Vt2/f0qFDh2jFihU0ffp0+uWXX+iPP/6go0ePlgiZkxs3brBQi9atW1N2djb9999/NHLkSBb0KCRHR0f6888/VQozkA/9kO165YpP18DaNy1cO65e+WNdly9frn7bTpkyhRVQ1N0BQZ6D47g8o3TlOXnlKRdzwrVr12jw4MFKMi8uLi4UHBys1KvdunWLPXxnZ2e1aft8qQgJCVGwnY6OTqFlkKOjoxVimHR0dEi2s/LVIi4ujnWC1apVozdv3ijY4/3797R06dIcg0yFjjK3vCUSiRD4SSKRiE6fPp3jtTzPk7DxAjW0Y+f6H+upVkHBCxcusGFbUSspJCFC1srKKsdpgiwUnwCQTDVACblJqBoaGtKwYcPynWPKLyLLQve/auzcuVPBjvPnzy/UWtGGDRsUdv800gN+QZBIJEz9Q09PL0/lDEEtxN3dXeFZ6OjoUJ8+fejcuXM5PpP4+HiysbFhTionByXPS62udixIFZmYmKhnJC4Wixljfu1q6o2SFXZdZGHrDBcuXMgzuOn58+c0bdo0pYXrWrVq0ZIlSwq0eyOEzAPaMypCo5DfQRs0aJDKoz+JRELyZ36EZ+jg4FBsuu0lEb/88guzSUFGeg8ePCBfX18mwyOkxo0b04YNGyg1NVUhrzt37rCp2aej9vj4eLbA3LKRetuxID8tHOotEmTxLmr1ivIJkAaLJSQkECCVoxV2HqytrRWcR2hoKPXs2VMpdsbDw4MOHTpUqNiZrKwsatWqFQHSuBBV1A9LI/bs2cNsun79eoUAuxYtWuSr6ZWUlKTwm1atWpG8/vXXOqU6ePAgmx0URrcLkLIirF69mjEjCCkneRp5AYExY8awzxcvXiztBHQ1144BFJ3kvWPHjgSAHOtppqK6OtKK/vHHH5SVlUVubm5sWnTz5k0StICEw21CMjExURs9gPwZFUtLS6X5dWlHWloaWVlZESDdyeF5nsRiMf3888/M3jVr1sx1TefZs2fUqFEjdu2QIUPYmpmwG2JqapqnOmhpxOPHj9m2s4ODQ5HlZCQSCf3999/UpUsXhZ1XjuOoW7dudPLkSeJ5nuRH7UFBQcTzPFsb0kQbPmFiQ1UqSMuTBYuqBCUmsZSUFDIxMYFEItEo25pHYiTatm2L+vXrIzAwEACwcOFCREdHY9u2bQpE2o0aNYKvry8GDhwIdVKiXr58mVq3bo3s7Gy0bt0a//zzD/T19UsNu1pemDlzJs2bNw8ikQg3b95EkyZN2H1v2LCBxo4dy8jFdu7cqcAVfenSJerVqxdiY2PBcRwWLFiA6dOns++joqKofv36yMjIwMiRI7Fp06avwqYpKSnk7OyMsLAwVKhQATdu3EDt2rXVdu8REREUGBiIzZs3IzExkX1er149+Pj4YMeOHbhy5QoMDAywZcsWeHt7A9AsL7RHYiSsrKzw4sULle5T6aIzZ85Q27ZtAWi+ovL0mNWrV0dMTAz7XldXF7169YKfn59GSa3Xr19Po0ePBgBMnDgRK1euLPWNIyIigho2bIjMzEz4+Phg7dq1Svd8+vRp6t27NxISEiASifDHH39g3Lhx2L59O4YPH47MzEyUK1cO27Ztg6enp9Lvf/vtN5o9ezY4jsOVK1fg7Oxc6u3q5eVFO3fuBMdxOHLkCLp06aKRe05JSaHg4GD4+/vj/v377HMjIyPwPI+0tDRUrFgR8fHxMCoD7NXXvHJITEwMqlevnu/9KlGMPnr0CABQQTMc2QoQnA0A5mwsLCwwa9YsPH/+HLt37+Y0zaA/evRobuTIkQCAlStXQhYAV6oxceJEZGZmwszMDPPnz8/xmnbt2nFXr16Fra0teJ7HhAkT4OTkhAEDBiAzMxOWlpY4f/58js4GACZPnoxatWqBiODn5wdNnFMrSVixYgXt3LkTADB79myNORsAMDIy4saMGcPdvXsXZ86cgaenJ0QiEVJSUpCWlgYAiI+PBwA0rKWpWijiyZMnKl2n5HDevXsHALCoqN4K5Qc3NzeEhITgxYsX+P3337ni0pYCAH9/fzRv3hwAMHLkSBTmnMuXgiNHjtCRI0cAAPPnz0fFihVztbOtrS135coVtGnTBgBw8+ZNAFIe6WvXrqFp06a5/rZs2bLcypUrAQDXr19HUFCQ2u6hpOHs2bM0ZcoUAECXLl3w66+/Fku5IpGIa9u2Lbdv3z4uKioK06dPR6VKlRSuMTLUbB10ZB5EXhAyLyg5HEGISwNqI3lXRCSCjo5O8RYqg6GhIbd3715UrlwZ6enp8PT0REmIUlU3MjIyaMKECQAAR0dHCCO7vJCZmYnU1FSFz1JTU1lPmhe6deuGTp06AQCmTZtWKm0aExNDXl5eEIvFqF27NoKDgzWq8JAbdHV1oaurq9SGpjzVrOqF4CfkBfzygpLDETzk2wT1VSovmJubA5AqDnh5ecHa2hpz5swpMBNbUVGjRg1u9+7d0NHRQVRUFLy9vVHaiI6WLl2Kp0+fguM4BAQEID/9rtu3b1Pz5s1x/fp1AECHDh0gEonw+PFjODs74+zZs3naRyQScatWrYK+vj7i4uKKrecvLmRmZlLfvn0RGxuLsmXLYt++fahQoUKxOhuBBKxmzZr4/fff2UijRo0aAIC5NTQrliiWSP+amZmpdL2Sw6lbty4AIC5R6Vq1w9DQEJGRkdi1axdat24NAHj9+jXmzJkDKysreHl50fnz54uNj6NNmzbcsmXLAAAnT57ErFmziqPYYsHz589p4cKFAIBhw4blu4h74MABatmyJaKjo2FgYIBt27YhNDSUO3ToEIyMjBAfH48OHTpg8+bNeT4bW1tbbtKkSQCAtWvXlqrp6o8//sgkkDds2AAHB4dicTbp6em0efNmatKkCbVq1Qo7d+5EdnY2jIyM4Ovri/DwcAg2D3tWHDWSKoWqAiUDffjwgSpUqAAi0vgulZubGy5evMjqcPfuXQoICMC2bdsUhuwODg7w8/ND//79Ua5cOY0+VJ7naeDAgQgJCQEA7N27F7179/7id1h69+5Ne/fuhampKR4/fowqVarkek+LFy+m6dOng+d5VKlSBfv374ebm5vCc+rWrRueP38OQKqBvWjRolxlaVNSUsjOzg4xMTFwc3PD+fPnP8u0Q53YunUrDR48GADg5+cHf39/jd/P8+fPKTAwEJs2bVJQJ7W1tYWvry+GDh0KExMTDpDK7zg7OwPQ/G6zubk5Xr9+rdIzVRrhmJqacm5ubgCABTU1MxzrkS7NV5jfC2jcuDG3fv167uXLl/jjjz/YaOvOnTv44YcfYGlpiZ9++omePHmisV5SJBJxGzduhIODAwBgyJAhUJUYu6QiNDSU9u7dC0AqFJibs8nKyqJhw4bR1KlTwfM87O3tce3aNQVnA0if07Vr1+Dq6goAWLZsGTw9PZEbx5CRkRG3YsUKAMDFixfx119/qfHuih+3b99moRRubm4Q7k1TEKRqbGxssHjxYrx//x4ikQhdunTB33//jYcPH2LChAmc4GwA6RqdhYWFRus1ylDajrt166ZyB5LjRdu3bydNBg15JEZCX18f0dHRMDc3z7WiEomEQkND4e/vj6NHj8otaHP47rvv4Ofnh++++y7ftYjC4OnTp+To6IiEhATY2tri2rVrMDU1/eJ65aysLHJwcEB4eDgaN26MW7du5TgSiYuLo969e+PcuXMAgM6dO2PHjh0wNjbO9Z7T09NpxIgRbDTo4OCAw4cPw8rKSuk3PM+Tu7s7Tp8+DQsLCzx69AjyDeRLQXx8PDk6OiIyMhIWFha4desWqlWrpvb7SElJoa1bt8Lf3x8PHjxgn5uammLYsGHw9fVFnTp18ix31qxZ9Pvvv6OMAXDAUDPtGJDuQjo5ORXeBpmZmYwoyKG2ekOjDfWl4dDyKoOqIDIykiZPnswOownJxsaGli1bphHuk7///puFk/fo0UMjnMeahrxCQG70np9qWU2cOFFlDhue5wX1TwKk3DpXr17N8bdhYWHskKjsCMUXBYlEQp06dWKHXQtLl5oXnjx5QhMnTlRi5bO3t6d169apzMQISDmnhYOd6pTZOWFiQ5WMpfUqLH+SEmTyp2o9i9HUVpqfmZlZvgcDc0NqaipbMIPcAylTpgyNHDmyUFyxeUEmgULAR1ndLwWvXr1i5OUDBgzIse4nT55kEjy6urq0bt26Qt3jrl27GB+OoaFhrqyBAqG8rq6uyhpOJQW//vorexdkXM5qAc/zdOzYMerUqZOSyqunp2euXDeqYM2aNWpvxwKpf5kyZdTLCT5ixAi1Vda14UfnIC/pWljwPE+XLl2i/v37M0oEIbm5uVFISIhaaCV5nmfUjBzH0bFjx76YRiIIzpUvXz7HMIPAwEA24jA1Nc2TGE0VXLt2jemEA6DffvtNaYcxMTGRXdOuXbvPpwhQQBw+fJg5A29vb7XUOTExkVauXMnkjIRUqVIlmjZtmsoqr3lBIpEo8OwUtR13dvlYz1WrVqn32aWnp1Pnzp1ZAYUVcxOIt4D86RALgzdv3tDvv/+uxBdrbm5Ov/76K718+bJIZSYmJpKdnR1rmOpYtJZIJHTlyhVatmwZjRgxgrp27UqdOnWi/v3704wZM+jgwYNFInqXDfdztLlYLFY4XVynTh219VQvXrxQUKX09vZWUu6UJ0HLj9UxL2RkZNDJkydp7ty5NHjwYOrcuTN16dKFhgwZQvPmzaPTp0+rRaEhIiKCjQIbNWqkxElTUISFhZGPj48S503Tpk0pKChIyV5FRUJCggJhXWGdTSObj3WdNGmSZjqL9PR06tatGyuooDrPggIBx3EaZ4HLysqiPXv2UJs2bRQepK6uLvXt2zdX5jRV8PDhQzY9adSoUYHm0vJ4//49LViwQMk55pQMDQ1p6NChdPfu3QKVJRaLmTqEvJICIHWe8vy2bdq0Ufv6V3JyMvXs2ZOV4eLiokD/wfM8tWzZkoCCKUQIiIqKookTJyopcuSUKlSoQFOmTCk0M11qaiqj4TAxMSl0ZyMQ/Ldr106hfnp6euTt7U0yJVON4cOHD4wGBgCZVyhYOxYoZQDQ9OnTNTsylUgk5O/vz3SeAZCOCNS8fs6Vrltd8aHXrl07X8VHdePevXs0ZswYJXmORo0a0bp16wo1ejhw4ADLx8vLq8BG37lzJ1WsWFGhPmYmIPdmina0raHccCZMmKAyt4qMVZ8AUGhoKPtNZGQkNWzYkH03YsQIjWk0SSQSmjp1KivLyspKQRzx9u3bTLVCxo6XL8RiMS1cuFBpCm1lrrgo2skZZPmJVEyZMmVo1apVBV74F6alhRFiBKQdzOLFi5UI/i0sLGj27NnFGlGflZVF8+bNU7Cfrk7u4giftuPq1avT8ePHi68dP336NEf6w9xSzZo1afHixYUeDagDHz58oFWrVikxp5mYmNDEiRMLTOY1c+ZMlodMqC9fZGZmKqgmFkRqR15jqV69evnW9+3bt2z437t3b3bthQsXGD2rSCTSyNQ2JwQFBbEX3MjIiA4fPid3WV4AAAmUSURBVMzK9fX1ldpDBZXPd+/eUYsWLZgtCjLSLl/2ow3bt2+vsmSNbI2CAJDsuauM27dv0/Dhw5WUGVxdXemvv/4qFjG+3PDgwYMcVSNyS9WrV6d58+apVeqnQEhMTKStW7fSmDFjyMXFhaytrcnCwoLq1q1L7dq1o2nTptHx48dLlOi6RCKhkydPUvfu3RV2AgCpouXhw4dVqq9YLGZboyKRiE6dOpXnb7KyshT0gFwbFm4OLfze0tKSIiIici1z+PDhBEgpXIVFx61btzJ1BiMjo0L11EXBuXPnqFKlSmyksHz5cuJ5nt6/f8/0xzp16pTriDEuLk5BQLAw9uvW4uPzdnFxyVfrS55j+7vvvlNpZJSdnU07duxg00UhGRgY0JAhQ+jGjRslpj0A0piioKAg8vX1JRcXF7KysiILCwuqVasWeXh40IwZM+jIkSNfNTe1WhAVFUVTp05Vmt7UrFlTJUL2+Ph4FrdiZmaW527CsGHDitRQ5JOB3sfpSU7rLleuXGHOdN68ecTzPE2fPj3XaU1xIiIigi28A6AffviBMjMzBRJ7AkAHDx5UqltmZiY5OjqqzYZCPm3atMm1g5Hn2K5Vq1a+a1xv3ryhuXPnMspaIdWoUYMWLFhA79690zZYLaS8vkFBQUx4T0iC+HxekjN3795la1qOjo457izIr/kUtaEISU9Xmt/AgQMVypNIJKxh1qlTh+Lj44UpFQFSRv/PzduckJDApFMAadDYu3fv2A5KrVq1lNap5GNf1GVDIb+cNjGysrLYCKVMmTJ069atXG125coVGjBggJJ+eJs2bWjPnj0laoSvRQkCz/N05coVGjhwoNLL4+rqSsHBwTnKpmzfvp1dN2zYMIUpQWJiIhOLb2ar3ihPocyjR4+y8tavX88+37Ztm4IT/f7779W+1VpYZGdn09ixY1nd6tatS3v27GEjM5miJADpwr8QJ6RO+wk2NDQ0VFA/AAAZITgBoC1btijZLDddtLJly9KoUaMKvKOoxVeO2NhYmj9/PlWvXl3hhapSpQrNnDlTaXtViJwFQIGBgew7IcJTR6T+xvJNHWl53377LQHSnRBhjaRVq1YKW+5z5swpkQ1gzZo1bJeqQoUKLN7L0NCQoqKiCPi4HmVRUf02rFBeah+ZphYARbkVHx8fBbvFxMTQjBkzmEa9kGxsbGj58uVM8kiLvPHFHZ4rLmRnZ9OhQ4fg7++PM2fOsM91dHTQs2dPgdwdEokEHTt2xJkzZ6Cnp4ezZ8/C1dUVDRs2RHh4uMaoAYSDc/fu3UNgYCDWrl0LPT096OrqIj09HYaGhggKCoK3t3eJfcbHjx8nLy8vJCUlQVdXF/r6+khLS0OvXr2wadMmWFpaIiMjQ6M2NDExwcuXL/H06VO4uroiLS0NLi4uOHfuHAwMDLhz587RmjVrcODAAYjFYgDSw8MdO3aEn58fOnfurJHDw6UVWkOpgPv371NgYCC2bt2KlJQU9nnDhg3h6+uLTp06oXXr1oiOjoaFhQVCQkLQrl07AJrjIhkkisTbBGDUqFHYtGkTeJ5n35mbm+PgwYNwcXEp8c83LCyMunbtiqioKIXPJ0+ejKVLl0JXBzhqpFmnHRwcjNmzZ+Pp06cwNzfHxYsXcebMGfj7++POnTvs+vLly2Po0KHw9fWFnZ1dibdtSYTWaAWALBwA/v7+TN0CAIyNjdG5c2fs27cPWVlZqFu3Lp48eQIDPeBQWc2SH1WoUAEJCR/5YBs3bozDhw/D2tr6i3m2b9++JU9PT1y4cIF9ZmJigsTERDjWA+a/0YwN/cpH4kkMUKdOHUREREBHRwd9+vTByZMnFWxqZ2cHPz8/DB48OE+6Di3yh9Z4hQDP83Tq1CkEBATg0KFDCqMLeTSvD/z+SvOaQAK6deuGkJAQlC9f/ot7rhkZGTRq1Chs3bpV4XNNjRAFyNuQ4zjGuSQQXI0bNw7u7u5fPENhSYHWiEXEs2fPaN26ddi4caMC7SNQvI3F2toaderUAVfcchtqxrNnzxAREcH+X5w2BIAKFSpgxIgRGDt2LGxsbL5sY5ZAaA2qJqSnp9OuXbuwZs0a3LhxA0DxN5bSiOKyob29PcaPH48BAwZonDf7a4bWsBqAh4cHnThxolgai0gkgsCvW5qwY8cOJCQkFIsNGzRogAcPHmjbQjFA93NXoDTCzc0NJ06cwOgykVifrtkGY29vn6M2+JeOXr160f79+zVaxpLakcAtwMnJSYE3WAvNQUm1QYuio1mzZgCAZ280V8Z8maKGUFZpg3Bfw/U0N2288UixLC00D63D0QCcnZ2hq6vZweOFe9K/gqRPaUPLli0BAC/jNFdGokzBuLTasCRC63A0ADMzM87T0xOANNZDE+B5afyPl5eXRvL/3GjVqhVsbW01lv8KW+lzcXR0RJMmTTRWjhaK0DocDcHX1xcA8CRG/Xn3zJA2liFDhnyRMTeqQEdHhxs7diwAzezGnZDKpcPX11cbY1OM0BpaQ5CpPeDgwYNqFSL73SoSF+4BFStWRFhYGKpWrVpqn2FaWhp98803ePz4MWyqAWtT1WPDobqReP0eaNKkCa5evQp9ff1Sa8OSBu0IR0MQiUTcunXrULFiRaRnAiP01dNLC2s3/v7+pdrZAEDZsmW5oKAgcByHyFfAnOpFt+HUylJno6enhy1btmidTTFD63A0iKpVq3IhISHQ19dHzDtgpEHhG8zq+pFsauHr64vvv/9eXdUs0XBzc+OWLVsGALgcBsysWngbTjaLxH+yIOaAgAA4ODhonU0xQ2vwYsCRI0eoV69eyM7OBscBfxsXbGowkIvEuw/Sf48ZMwYBAQFfHSXCkiVLaMqUKQCAcobAPoOC2bB7WiQys6X/Xrt2LXx8fL4q+5UUaI1eTLh48SINHjwYT58+BQCVTpKPNIhE9Fvpvw0MDLBw4UJMmDDhq3M2AkJCQsjX15ed5K5oDGzn8rZhX3EkkmTb35UrV8aGDRvQq1evr9J+WnxlSE5OpgkTJjANblVTu3btvjgdbk3h5cuX1KdPHyXljbySjo4ODRgwoNB69lpo8UXj3bt3tGjRInJ2diYdHZ0cG0mtWrXI19c3TxLvrxkRERE0depUatCgQY724ziOGjVqRDNmzKBnz55pbVhCoB1afmakpaVRREQEYmNjIRaLUbFiRdSqVQtVqlTRPhsVkZCQQJGRkXj37h04jkOVKlVgY2MDExMTrQ210EILLbTQQgsttNBCCy200EILLbTQooD4P15Z6vpHuLTDAAAAAElFTkSuQmCC;rounded=0;fontFamily=Times New Roman;" parent="IKF0CIoohc7Vr73QVWxk-25" vertex="1">
          <mxGeometry y="13" width="150" height="68.66" as="geometry" />
        </mxCell>
        <mxCell id="IKF0CIoohc7Vr73QVWxk-14" value="" style="group" vertex="1" connectable="0" parent="IKF0CIoohc7Vr73QVWxk-25">
          <mxGeometry x="29" width="100" height="100.09" as="geometry" />
        </mxCell>
        <mxCell id="IKF0CIoohc7Vr73QVWxk-12" value="" style="shape=image;verticalLabelPosition=bottom;labelBackgroundColor=default;verticalAlign=top;aspect=fixed;imageAspect=0;image=data:image/png,iVBORw0KGgoAAAANSUhEUgAAAIEAAACBCAYAAADnoNlQAAAABHNCSVQICAgIfAhkiAAABjlJREFUeJzt3cFLk3Ecx/Hf5pgpLNQ5ljMIFoSwedFLUZDZgiQIb138FzwYVCiSdDEURHRakPOkZW7nHSTo0qFD0LwYy0OKh2JdNAtJ1H279IDbnufZs+039fd8P294Dj1sMfd79fv9nseZQiDbtL6+TteuXaOamhoSQpgeV65coQ8fPtDpvVokvXQ6TYFAoOjgizwIp/RykezKAXDsQKr39evXSgCQEEK4Tv5lI1ml02m6deuW+P79e875YDAootGocLvdOec/f/4snjx5cpIvEVUzoxng0qVLtLGxQXq9e/cOy4FdKgcAENiocgEAgU2qBAAQ2CCjy8BgMEhbW1tFARARJZNJIFA1GQC2trYoGAzmPP//nUV01qsWACEEXb9+HQjOetUEEAgEaH19HQjOcpVuAjUAly9fLvg7/H4/ra2tAcBZDgCYBwDMAwDmAQDzAIB5AMA8AGAeADAPAJgHAMwDAOYBAPMAgHkAwDwAYB4AMA8AmAcAzAMA5gEA8wCAeQDAPABgHgAwDwCYBwDMAwDmAQDzAIB5AMA8AGAeADAPAJgHAMwDAOYBAPMAgHkAwDwAYB4AMA8AmAcAzAMA5gEA8wCAeQDAPABgHgAwDwCYBwDMAwDmAQDzAIB5AMA8AGAeADAPAJgHAAqVSqUoGo3Sly9fpL2p1f7dwel0GgBkFYvFtF/LTm63m+LxeMVvLgAo1Pz8PDmdzpw3uaamhl6/fl32m4wlQKH0AIgKIQCAQpkBEGVCAACFisViugBaWloKzrlcLkt7BOwBFMpoBnjw4AHt7e1Rb29vyTMCZgCFWlxc1AXQ19dHh4eHRES0v79P9+/ftzwjYAZQqKOjI2poaDAFoGUVAgAo1sHBAdXX1xe82UNDQ7qDUwwCACja2NiY7lXA8PBwyRB8Ph8AqNrTp091ITx69MgQgt5mMf/AJlCxZEMAAEUbHh6WsjQIIWh6etoyACwBZyxZM4J2HwEzgKKdBAQAUKBqQgAAhaoGBABQMFmbRZfLRdPT09gEqlq17iMIzABq9fDhQ2mXjwIzgHplMhkKh8OGg1kOBJ/PBwCq9PPnT2pvby86rZe7WTydrwpZzmgGOHfunLTNooxPMaMqZTQDNDQ00KdPn0j25eOpfJHIuGIAtADBplkFAAg2zewqIBKJ0P7+fsGgplIpqqurwx7BDlm5Cujp6aG/f//mAPB6vbhqsEOZTMbSZaA4BsEKAAEIapTJZCgUChUMhNfrpdHRUXK5XLpLgx6AcDhMAwMDWBpUygxAKpUiIqJ4PK4LIf8Ih8OUyWRICHnfdHK73VJ/LB7lZQWAVjEIxwFolQphb29P9+Pqs7OzQFCNjAAIIWhlZUV3kEZHRy0D0LIK4fDwkPr6+nT3Bqurq0AgOzMA4tigHs9oE2gGQKsYBCMATqeTYrEYAMiuGAChA6ESAFpGEIaGhgDgJDPbAxgN8srKSsUAtIwg5B8AUKWM7gRqt4JXV1epubnZ0iC1tbXRjx8/yhoko1vM2uFwOOjFixcAIDsjAI2NjTnfC7ACoRIAWkYQAEBy29vbNDExQV1dXeTxeHSXgPzLQLP1XwhBoVCo5CXAqPylAUuA5BYWFqixsdH0X/T58+dpbm7OMgKZALTGx8epvr6empqaaHFxEQBk9ezZM0vrunY8fvz4VABoHRwcUDabBQBZvXnzpiQA2jE3N3cqAJDkfv36pbsERCIRWlpaoo8fP1I8Hqd79+7pLg0AYIMmJycLBnFkZET39u/ExETR2QEAFCwSieQM4o0bN3QBaOnNCAIA1C7//wp69eqVKYLl5WUAsFnO3d3dnBOtra2mT7h48WLBuVAoJN6/fy/8fr9D6qtDJ5Kzqakp58Tm5qbpE759+5bzZ4/HAwCqd/v27ZxpvbOzk46OjnSXgmw2Szdv3sx5fHd3N5YA1ZuZmSlY3/v7+wsgZLNZGhwcLHjs1NQUEKje7u4uXbhwoWBwOzo6aGZmhpLJJL18+ZKuXr1a8Jjm5mba2dkBAjsUj8fJ4XCUfMfw7du3AGCnnj9/XhKE/58bRHYrkUjoLg3HD5/PR4lEAgDs3O/fv2l2dpbu3LlDgUCAamtrye/30927dykajdKfP38AACG79Q/ji+HJbD4/pAAAAABJRU5ErkJggg==;" vertex="1" parent="IKF0CIoohc7Vr73QVWxk-14">
          <mxGeometry width="88.01978219602357" height="88.01978219602357" as="geometry" />
        </mxCell>
        <mxCell id="IKF0CIoohc7Vr73QVWxk-13" value="" style="shape=image;verticalLabelPosition=bottom;labelBackgroundColor=default;verticalAlign=top;aspect=fixed;imageAspect=0;image=data:image/png,iVBORw0KGgoAAAANSUhEUgAAAIEAAACBCAYAAADnoNlQAAAABHNCSVQICAgIfAhkiAAABjlJREFUeJzt3cFLk3Ecx/Hf5pgpLNQ5ljMIFoSwedFLUZDZgiQIb138FzwYVCiSdDEURHRakPOkZW7nHSTo0qFD0LwYy0OKh2JdNAtJ1H279IDbnufZs+039fd8P294Dj1sMfd79fv9nseZQiDbtL6+TteuXaOamhoSQpgeV65coQ8fPtDpvVokvXQ6TYFAoOjgizwIp/RykezKAXDsQKr39evXSgCQEEK4Tv5lI1ml02m6deuW+P79e875YDAootGocLvdOec/f/4snjx5cpIvEVUzoxng0qVLtLGxQXq9e/cOy4FdKgcAENiocgEAgU2qBAAQ2CCjy8BgMEhbW1tFARARJZNJIFA1GQC2trYoGAzmPP//nUV01qsWACEEXb9+HQjOetUEEAgEaH19HQjOcpVuAjUAly9fLvg7/H4/ra2tAcBZDgCYBwDMAwDmAQDzAIB5AMA8AGAeADAPAJgHAMwDAOYBAPMAgHkAwDwAYB4AMA8AmAcAzAMA5gEA8wCAeQDAPABgHgAwDwCYBwDMAwDmAQDzAIB5AMA8AGAeADAPAJgHAMwDAOYBAPMAgHkAwDwAYB4AMA8AmAcAzAMA5gEA8wCAeQDAPABgHgAwDwCYBwDMAwDmAQDzAIB5AMA8AGAeADAPAJgHAAqVSqUoGo3Sly9fpL2p1f7dwel0GgBkFYvFtF/LTm63m+LxeMVvLgAo1Pz8PDmdzpw3uaamhl6/fl32m4wlQKH0AIgKIQCAQpkBEGVCAACFisViugBaWloKzrlcLkt7BOwBFMpoBnjw4AHt7e1Rb29vyTMCZgCFWlxc1AXQ19dHh4eHRES0v79P9+/ftzwjYAZQqKOjI2poaDAFoGUVAgAo1sHBAdXX1xe82UNDQ7qDUwwCACja2NiY7lXA8PBwyRB8Ph8AqNrTp091ITx69MgQgt5mMf/AJlCxZEMAAEUbHh6WsjQIIWh6etoyACwBZyxZM4J2HwEzgKKdBAQAUKBqQgAAhaoGBABQMFmbRZfLRdPT09gEqlq17iMIzABq9fDhQ2mXjwIzgHplMhkKh8OGg1kOBJ/PBwCq9PPnT2pvby86rZe7WTydrwpZzmgGOHfunLTNooxPMaMqZTQDNDQ00KdPn0j25eOpfJHIuGIAtADBplkFAAg2zewqIBKJ0P7+fsGgplIpqqurwx7BDlm5Cujp6aG/f//mAPB6vbhqsEOZTMbSZaA4BsEKAAEIapTJZCgUChUMhNfrpdHRUXK5XLpLgx6AcDhMAwMDWBpUygxAKpUiIqJ4PK4LIf8Ih8OUyWRICHnfdHK73VJ/LB7lZQWAVjEIxwFolQphb29P9+Pqs7OzQFCNjAAIIWhlZUV3kEZHRy0D0LIK4fDwkPr6+nT3Bqurq0AgOzMA4tigHs9oE2gGQKsYBCMATqeTYrEYAMiuGAChA6ESAFpGEIaGhgDgJDPbAxgN8srKSsUAtIwg5B8AUKWM7gRqt4JXV1epubnZ0iC1tbXRjx8/yhoko1vM2uFwOOjFixcAIDsjAI2NjTnfC7ACoRIAWkYQAEBy29vbNDExQV1dXeTxeHSXgPzLQLP1XwhBoVCo5CXAqPylAUuA5BYWFqixsdH0X/T58+dpbm7OMgKZALTGx8epvr6empqaaHFxEQBk9ezZM0vrunY8fvz4VABoHRwcUDabBQBZvXnzpiQA2jE3N3cqAJDkfv36pbsERCIRWlpaoo8fP1I8Hqd79+7pLg0AYIMmJycLBnFkZET39u/ExETR2QEAFCwSieQM4o0bN3QBaOnNCAIA1C7//wp69eqVKYLl5WUAsFnO3d3dnBOtra2mT7h48WLBuVAoJN6/fy/8fr9D6qtDJ5Kzqakp58Tm5qbpE759+5bzZ4/HAwCqd/v27ZxpvbOzk46OjnSXgmw2Szdv3sx5fHd3N5YA1ZuZmSlY3/v7+wsgZLNZGhwcLHjs1NQUEKje7u4uXbhwoWBwOzo6aGZmhpLJJL18+ZKuXr1a8Jjm5mba2dkBAjsUj8fJ4XCUfMfw7du3AGCnnj9/XhKE/58bRHYrkUjoLg3HD5/PR4lEAgDs3O/fv2l2dpbu3LlDgUCAamtrye/30927dykajdKfP38AACG79Q/ji+HJbD4/pAAAAABJRU5ErkJggg==;direction=north;" vertex="1" parent="IKF0CIoohc7Vr73QVWxk-14">
          <mxGeometry x="5.2631578947368425" y="1.0900000000000316" width="88.01978219602357" height="88.01978219602357" as="geometry" />
        </mxCell>
        <mxCell id="IKF0CIoohc7Vr73QVWxk-28" value="Target Network" style="shape=image;verticalLabelPosition=bottom;labelBackgroundColor=default;verticalAlign=top;aspect=fixed;imageAspect=0;image=data:image/png,iVBORw0KGgoAAAANSUhEUgAAARwAAACCCAYAAACU73dnAAAABHNCSVQICAgIfAhkiAAAIABJREFUeJztXXdYVMcXPbtLFQQLiIoiNkRFjYoCQY0FJXZFDRpjNwYFOyrWEKNR1FjBbkgUiV2xRv2pGI1ij72LNYoiSG+77/7+ePuGXZaywC7NPd83H7C8fTPvvjf3zdy5cw6ggw466KCDDjrooIMOnwVkMhkVdxt00EGHzwg6p6ODpqFX3A34XMFxHD169AgXL17EvXv3EBUVBZlMhooVK6JOnTpwcnJCy5YtYWRkJCquNkql0uKqWi1kZGTQrVu3EBERgcePHyM6OhoikQgWFhaws7ODi4sLHBwcoKenV2w21EGHYkViYiJt2LCBmjRpQgByLZUqVaJp06ZRZGSkbqShgKioKFqwYAHVqFEjTxva2trSkiVLKDo6WmdDHT4vHD58mKpVq6bUIQz0QS3sQD2/BPVtC2rbFFTJTLnTSCQSmjNnDqWlpZWITsNxXLG0QyaTUWBgIJUrV07JPqbGIJfGoN6ufHFqCCpnpGxDMzMz2rJlCxVX23XQociQkZFBY8aMYQ+/SATq5QrChtzLlG9A5iaZnaZZs2af7WgnJiaGOnXqxGxhZAAa1T1vGw7pwjt14Xs9evSghISEz9KGJQG6ua2WkZGRQUOGDMGOHTsAAM3qAjen5+8cow4CW47wv9eqVQvh4eGoXbv2Z3PvYmJiqHPnzrh27RoAoLszcGRE/s7RaQNw6jr/e5s2bXDs2DGUL1/+s7FhSYHO4FrG6NGjafPmzQCAUd2BLb0Kfi59byBDCtja2uL69euoVKlSmb9/6enp1LZtW1y6dAkAsNwbmNK0YOeafwmY9xv/e6dOnXDixAlIJJIyb8OSBElxN6AsIywsjKZP54czhXU2AMB1B/SOATGxn/Dff//h1q1bP2mgmSUaEonEf/v27QCA1ROASU0Kfq4zNYBfqvEjncjISFSoUAHHjx8v8zYsSdB5dy0hLi6O7OzsEBUVhZZ2wLWpmjmv4lv6yJEj6N69e5m9h7dv36bmzZtDKpVi2NfAH301c96+IcD+c4CRkRHu3r2LunXrllkbljToRjhagrW1tf/u3bshEQNvFmruvGdqAM0fAu9igDdv3uDFixdl9g2dmprqf/36dVStBPzjo7nzPmgKVDwLJCZLIRaLERERUWZtWNIgLu4GlEVwHEeBgYEAAI92mj//DV/+59mzZ3Hr1q0yueISHR1NoaGhAIAJ/TR//h968j+Dg4OhW7UqOugcjhZw69YtPHz4EACwe5B26qhaif+5a9cu7VRQzDh48CDS0tKgrwfMctT8+Rd/BYhEQFxcHE6cOKH5CnTIFjqHowVcvHgRAGBipL063Foq11XWEBERAQBwbKC9OhrV4n+WVRuWROgcjhZw584dAMAX9bRXh9ARb9++rb1KihHCdWnT4TjaK9elg/ah27ypYZw7d4769eODDjWqaK8eYXn4/fv3MDU1JZGo7Cy0EBEb4dSw1F491hb8z/Pnz+P48ePk5uamy8vRMnQORwNISkqi7du3IygoCG3btmWf6xfRGmBiYmLRVFQM0ObOJ8GzJCUlwd3dHQ0aNMDq1atp2LBhMDc31zkeLUDncAqBJ0+eUFBQEKytrfHp0yeV/3+M117dvz0DRir8bWxsjPHjx6Nx48baq1TLiIyMxMqVK5VsmZCsvfpis/jphw8fYsKECZg1axZ8fHzIx8cH9vb2OsejQeiMmU/IZDI6duwYgoKC8Ndff4GIfwWLxWKYmJggISEBRkZGSE1NhW1V4LmWMjx8TwPLdgIikYi1QSKRIDAwEGPHji1193X37t00dOhQpKSkKH3ety2w/zvt1CnsrxLul4mJCVJTUyGTydgxnTt3xvjx49GtWzcdr44GoAsaq4mYmBhatmwZ2dnZoUePHjh27BiICJUrV8b06dPRrVs3JCQkQCQSwc/PDwDw/J322nNeHuds2jRzY5FMJsPYsWMxceJEkkqlpSa3ZMGCBfTNN98gJSUFQiyqRYsWAIALd7RX7+UH/M+xY8dCIpEgKSkJbdu2xcyZM2FhwQd4Tp48iV69eqF+/fpYtmwZxcTElBq7lkToHE4euHHjBo0aNYqsra3h6+uLp0+fAgBatmyJ4OBgvH79GpaWljh8+DAAYN68eZg8eTKMjY0B8FsRtIGIe/zPSZMmwdraGgBgbm4OAFi1ahV69uyJuLi4Et05UlNT6bvvvqM5c+aAiFChQgUQEczNzbFo0SIAQFSsdure/ipzuvbDDz9g2bJlAIDw8HDo6enh1atX+P3339GyJZ9/EBkZCV9fX1hbW+P777+nmzdvlmjb6lCKkJ6eTqGhofTll18qk2UZGNB3331HFy9eZA/b//73P5JIJIxrRSB4+v777wkAVbfIm7Mlv+WHXnx7rKysKC0tjXbs2MHa2LZtW/Z748aN6dmzZyWyY7x//17Jvoq/r1q1ijiOo5YtWxIAcmupeRs6NeTr6tixIwF8dvjAgQNZGw4ePEhERBzH0cWLF+nbb78lfX19peehXbt2tHv3bsrIyCiRNtahhOPNmzc0d+5cqlq1qtKDVbNmTVq4cCFFRUUpPVjPnz8nCwsLAkD169enT58+sf/L34AEgGZ8q9nOIhbx5507dy7rLB06dCAAVK1aNfrpp59IJBIRALK0tKR//vmnRHWIO3fukK2tLbPP1KlTqVGjRgSAmjRpwqaDf/zxBztmxzzN2W+jb+a93bdvH7NNYmIiOTg4EAAyNzenx48fK9nt7du35O/vr/J81KhRgxYuXEjv378vUXbWoYQiPDycBgwYQHp6ekoPUocOHWjv3r3ZxkNSUlLYG9jU1JTu3LmjcoyXlxcBcgehoc5iVxOMqzc+Pp7VeefOHTbSmjZtGu3bt49RcRoYGFBISEiJ6AxHjx4lMzMzAkD6+vq0ZcsW+vXXX5nNz549y9oplUrZyKeSmeZsaGrM19WlSxcVytFHjx6x9jk4OFBiYqKK3dLS0ujPP//MdgQ8dOhQunLlSomwtQ4lCImJibR+/XoVMnNTU1MaN24c3b17N9eHZvjw4ew7u3btyvbYhIQEql27NgEgE6PCdxTHBpntPHPmjEqdkydPJgCkp6dH9+/fp+vXr5O1tTX7zuzZs6k4pV9WrlzJnGLlypUpPDyc3r59yzr4oEGDVNr28OFDMjY2JgBUy6rwNqxWGYzj+OXLl9naIiwsjNls0KBBufIgX7t2jUaMGEGGhoZKz5GTkxOFhISUGB7qUo+kpCQ6c+YMrV69mvz8/Gjy5Mk0b9482rx5M924caNYH+zc8OjRI5o4cSKZm5srPSD29va0Zs0aUifQGhQUxL43bdq0XI+/ffs2m3aVMwIFTSpYR7G3yWzrmjVrsq3z06dPZGVlxcc93NyI4zh68+YNOTo6su/279+fkpKSivTeZGRkkDDaA0ANGjSgx48fExHRkCFDmKN/8+ZNtu06cOAAi59Uq1xwZ2NhztdvZGREJ0+ezNUGs2fPZu1duXJlnvb68OEDLVq0iGrWrKn0XFlZWdG8efNyvLbiRmJiIp05c4ZWrlyp1I83bdpE//77b/GudnIcR//88w8NGDCAvXVyKlZWVjR16lR68eJFsRtaJpPRwYMHyd3dncU2IFdD6NOnT54PnyLOnz/PHn43Nze1bsjt27fJ0tKS1dv+C/U7yXgPkESct7MRoBj32LNnDxERJSUlUf/+/dnnjo6ORdYBYmNjyc3NjdXt5uZGsbGxRER07tw59nlAQECu7QkLC1MK2n7rpr4N+7XLtJ86zgbgp3Pu7u5sxPj333+rZa+MjAzat28fi6kJRU9Pjzw9Pen8+fPFrhzBcRyFh4dT//79VcIIWUulSpXI19e36BcfXr16xW6AYqlsxsucuDqAHGqDjA2V/y+RSGjGjBmUmppa5Eb++PEjLVmyhE1rhGJhYUF+fn75dob//fcfk3mpVatWvrSOXr9+TV27dlVqRz1r0Lg+oN9mKHeQuUPlTknhWBsbG/rf//6XZ30ymYzFFmrWrMlGMzKZjObMmcPOZ21tTdevX9fqPXn8+DE1aNCA1enl5cVWdKRSKTVr1oyNeNLT0/Nsy40bN6hp06ZKdnFsAJo2ELR9Tqb9ts3mFS++qKdsw1atWtG9e/fUvubo6GgW3K5atSr9999/+bLX7du3ycvLS0XWpnnz5vTbb79RcnJykfeJR48ekaurq0o/tjAHtVTox1lldkQiEfn4+GQb09I4du/erTQFqWcNWu6d+1tlyjcgMwWJEwcHB7p//36RGFiYV2cdhbVq1Yr++OOPAjm/9PR01pGNjIzo2rVr+T4Hx3G0bds2tUTwhFKpUiXy8/NTa6on4Pr162wkJ3cyDNu2bSMDAwMCQOXKlVNapdEkwsPDqVKlSuyls2rVKqV6AgMD2TWeOHFC7TakpaVRQECAWiJ4QqlduzatXLmyQMvX165dIyMjIwJArq6uBYrJxMbG0vLly6lu3brKL+vKlWnGjBn0/PnzIukX69evV+oTDWqCVk/Iux8rShXVrVuXrl69qr32hoSEsIfX1Bi0Yar6Q1lsAHn1ymyslZWV1pxOWloahYSEkLOzs9JNNTQ0pKFDh9Lly5cLVe/YsWPZOeXTlgKD4zg6e/YsjR8/nhwdHZUeAolEQnXq1KFvv/2WgoODC/wWFNprYGCgsrz7zz//KE3xFi9erNFh/ubNm9n0x8zMjI4ePap07g8fPlDFihUJAHl4eBSo3oyMDNq7dy+NHDmSGjZsqDTdMjAwIAcHB/r+++/p4MGDhY5DBAcHs3OPHz++wOeSyWR05MgR+vrrr5WeUbFYTH379qVTp05pbbq1ZMmSTEdnBvozn2kGvp68nhrk9/TSpUuab+eBAwdILBYTAGpYK38NzFqEqVbVqlVzXB0oCF69ekWzZ8+mKlWqqExBFi1aRB8+fCh0Xb/99hs7r4+Pj8YNzXEcJSQkUGxsrMaCdB8/fqTKlSsTwCckZv1/ZGQkNW7cmF3XsGHDCj3tlclk5Ovry85pa2ubbbrA6NGjCQAZGxtrLMYnk8no06dPFBcXp5VOqxj03rZtW6HP//DhQ5owYQKVL19e6blt3LgxrVu3TqNifYqjSZfGhevHFctnOh2N0tu+e/eOPbANahaukUIxMuAb6+7uXuiH4vTp09SvXz+VoJebmxvt379fYx336tWrbEjdpk0btWINJQUbN25kdjl06JBKu+Pi4pTiSm3bti2wg05ISKBevXqxc7m6umabCHf58mX2Eps/f36psWVqaio5OTkxR/nvv/9qpO3x8fEUFBREDRs2VHqOzc3NadKkSSqj0/zizp07bAr9pYNm+rHgdJo1a6a5ZX9hVcPIQDONxAb5dExu0M2bN+e7oQkJCbR27VqlNzMAKl++PPn4+Gh8uvb+/XuysbEhAFS9enV69+5dqekgAB+YFZbE69SpQykpKSrtz8jIoEmTJinFO/LKQcqKly9fsgAwAPruu++yHS1xHEetW7dmsYDiWEgoDF69esVG0nXq1NHoRk6O4+jkyZPUu3dvpZVUkUhE3bp1o6NHj+Y71UQqlbLk1CoVNdePsSGz7/3444+Ft4H8gSMA9Os4zTa0s2Pmg63uKOTBgwc0fvx4liAmlEaNGlFQUJBWtKKlUilb2jQwMKALFy6Uqs4hICIigtnr559/zvEa1q9fz5LyzMzM6K+//lLrei9dusRS/UUiES1cuDDH723atIm15eDBg6XSnmfOnGF26tatm1byzSIjI2natGksziWU+vXr08qVK5W20OQGuY35oklnswE0omvmy14x471A8Pb21o5XzOIdDx8+nGNDZTIZHThwgNzc3FRyZzw8POjUqVNafWCnTp3K6ly3bl2p7BwCRo4cyaYCua2InDx5kipUqMDsLJ/754gdO3aw6Wa5cuVoz549OR4fExPDEiC7d+9equ25dOlS9mz4+/tr7VqSkpJo8+bNSqNHAGRiYqJWNnyXLl0IkGeoa6Efi+X5YXk9J7lCJpOxh272EO00tIUd31BPT0+VhkZHR9OiRYuoVq1aSkauUqUKzZo1S6MB55zw559/snrlnbVUIyoqiqU19OvXL9frefDgAdWrV49dv7e3d7bLyf7+/uxFUL169TyXSoWXmKGhYaHjEsUNjuNowIABbFR35MgRrV4Px3H0999/04ABA9joSiidOnWiAwcOqMwW5DlDBIB+99NOP/aQJ1S2atWq4Nf/8OFDrQ3DhPLjcLB5sFDvlStXaNiwYeyNKRRnZ2fatm1bke1JuXXrFkvUatWqVamLM+SE1atXM5vmlfcSHR1N7du3Z8d36dKFDeNTUlKEPU8EgFq0aEGvX7/O9Xz//vsv6yjyLQOlHvHx8SzQW6FCBXr69GmRXNfr169pzpw5KquytWrVooCAAJaMunfvXq33422z+fPr6empvV1GhTJx+/btNHjwYOhJAOlazRlKBT/wP9atW4fg4GBcvnyZ/cvIyAgDBw6Ej48PHB0di4zWMTY2lhwdHfH06VNYWlri2rVrsLGxKRO0khkZGdSyZUvcunUL9vb2uHnzJgwNDXO8trS0NBo3bhy2bNkCAGjYsCF+//13TJw4kSkq9O3bFyEhITAxMcnVRm3atKHz58/DxsYG9+/fz/P40oIHDx5Qq1atkJCQgGbNmuHChQtFdm2pqam0e/durFmzRqXvDB48GGKxGJs2bYK9DfBgthYbIu/Hly5dgpOTU57XrkKi/uLFCwBALSvgqYbblh3Gjh3Lfre1tcXYsWMxatQoWFhYiH7//fciaAEPmUxGPXv2xNOnT6Gnp4ddu3aVGWcDAPr6+qK///6b2rVrhwcPHmDVqlW5Hm9oaCjiOI4aNmyIadOm4f79+3BxcQHHcQCAmTNnYuHChRCLxbnaaNu2bTRkyBAAwK+//lpmnA0A2Nvbi/bt20ceHh64efMmvLy8wHEc5WUTTcDIyIjVcenSJVqzZg127tyJ1NRU9pIAgNrVgAfabgyA//77T63jVChG09PTAQBGBpptUG4wMDCAp6cnzp49ixkzZogsLCyK/KH09/fH0aNHAQBLlixBhw4dykzHENCuXTvR4MGDAQDz589HXlMhsVgs8vX1Fc2ZMwcikYg5m9GjR2PRokWivDpWfHw8TZs2DQDg5uaGAQMGlDmbenh4iAQO623btmHtWm1OC7KHk5OTKCQkRBQaGoqGDRsq/U+b6q8AYKDP/0xNTVXreBWHY2TEtzA5TXONygvp6enYuXMn6tSpg379+tGZM2eKdEftgQMHaMGCBQCAQYMGYcqUKWWuYwhYsmQJTE1NkZiYiOnTp+d5/LJly2jhwoUgIojF/OOyefNm+Pn55bkk7O/vj3fv3kFfXx+rV6/WzAWUQCxYsABubm4AeI7pomRYTExMpLVr11KjRo1owIABuH//vtL/47UoswMA6Rn8TxMTE7WOV3E4devWBaBdxYHsYGRkBJlMhr1796JDhw5o0qQJ1q5dq5UcG0U8ePCAhg4dCiJC06ZNsXnzZm1WV+ywtrYW/fjjjwCA0NBQKDLsKSI9PZ1Gjx5Nvr6+4DgOjRo1woULF9C6dWsAwOLFi9G/f3/ktHv47t27JDiZCRMmoFGjRmXWievp6Yn+/PNP2NjYQCqVon///nj79q1Wn9vHjx/TxIkTydraGuPGjcO9ezyrfvny5QGAvRyevtFmKzIhEPnnBRWH4+joCAAgLZpr1jn+p52dHezteYFnQ0NDzJ07Fw0a8GLSd+/exbhx42BtbY0JEybQgwcPNN6i+Ph46tu3L+Lj41GxYkXs37+/TMUYcsKECROY3X18fJB12fvjx4/k7u7OnK+7uzsuXLgAZ2dnUXh4OAYOHAgA2L9/P9q2bYtXr16p3JsJEyZAKpWiWrVqEBxcWYalpaVo7969MDAwwNu3b/HNN99A09tgOI6jI0eOUNeuXcnOzg6rVq1CXFwcJBIJPDw8MGrUKCQkJAAAhg8fDgB4ql5opUDYIg/yGhoawsHBQa3vqDicWrVqwcrKCgAw8aTmGqeIvWf5ny4uLjhw4ADKly+PuLg4HDhwAFevXsXJkyfRu3dviMVixMfHY/Xq1bC3t0fnzp0pLCxMI/ukOI6j4cOH4/79+xCLxQgNDUXdunXLvLMB+IDwmjVrAAC3b9/GunXr2P8ePnxIzs7OOHPmDADeIR05cgQVKlQQAUC5cuVEoaGh8Pf3BwDcuHEDrVu3hiKP765du+jUqVMAgKVLl8LMzOyzsGurVq1EQUFBAIBz585hxowZGjnvp0+faMWKFWRnZ4fu3bszTTQLCwvMnDkTkZGRGDNmDIKDgwEAAwYMwJIlS9goJ/CeRpqhgp38I4LWrVvnuuKZJ2bMmEGAnAdDi5nG4eHhBPAxFOEzT09PFr95/vw5+fn5sU2kUMg5WLx4caF2gv/yyy/sfAsWLCgTuSH5hbBfztzcnKKioujUqVMsnV5PT4/kVKo54s8//2RcvsbGxrR7925KSkpiNJtyyZrPDsJueAAkTyItEO7evUtjx44lU1NTpee/RYsWFBwcTCkpKUREFBkZybiHGjVqxMIQcuoPnp5Wi/34999/L9x9joyMZFmkms42bmXPN7Jx48ZKgWFFNjo5iz9DSkoK/fHHH0JGIyuGhoY0fPjwfLPkHz9+nO1Y7tOnT7FTPhYXXrx4wbh4vvzyS7bz3tzcXG1SrIiICMajDIC++uorgnxrxOcqFpeSksI2zZYrV45u376tth2kUint379f0MtiRV9fnwYNGqSypy8lJYWaN29OkO9rUgw9nD59mn1/8zTN9uNervx5LSwsst0UnG+MGTOGf3DEmmvkL99nGjAr05xUKmVUCRKJhOTGUsGlS5do6NChbMu9UJycnGjbtm15ZgY/e/aMvQ3s7e0Lv/GslEO+oZOVunXr5ouGE+AdV1bqTzkB2GeLFy9e5KhZlh2io6Np8eLFKlt6qlatSv7+/pRTEFpRPUSeXczAcRx16tSJd0blNNeP/5iZ2b6sTI4FRlxcHKNmKAxTvlC2z8kUcMtODgTgN/gJNIwWFha5kjO9f/+efvnlFxWWfEtLyxz3XCUnJ9MXX3zB3gZFRXlaUhEfH6/Eh2Nqaqoi9pefcymm27du3brA5yor+N///sdG0r169co2jeDGjRs0cuRIFTpcFxcXCg0NzZV/Sb6pmACQPAyighcvXjCSL01NrQReq6+++kqzu+X//vtvtrepMJK166dkOpsGDRrkSj5+8+ZNtpfJ0dExz+FaRkYG7d+/n3lyoWRH2zh48GCCfMOdtrh88wuO4yg6Opru3r1Lt27dolevXhWJdOzz58+z5VbesGFDgepW1HISiq2tbb6mEwWFTCajt2/f0u3bt+nOnTv07t27EiNTtHjxYmYPIVaYkZFBO3bsUCEzNzIyouHDh6vFGXzx4kU2yu/UqVOuCym7du1ijq8wZHo75mU6m+rVq1NkZKTmbXzixAkWGJSI8x/T6e6caVA7Ozu1mO8Vd2uPGDFC7RjLvXv3yMfHRyXI1rBhQyWZlFmzZhXrw5iamkrbtm2j3r17q2zCg/zBa9OmDc2fPz/fSgHq4MKFC6xesVhMAQEBAg0pVapUKV9qFAAfR5BvxKXWrVvTpk2bWDyofPnyWtlNHRsbSytWrCA3NzcVmk6A31Dp7u5OgYGBxTpt5jhO4G0mkUhEQ4YMoerVqyu1tWbNmvTLL7+ovQgSFRXFBA5tbGzU+l5ISAhzOob6oIAf8tePv+mQ2d7q1avTo0ePtGfTv//+m02vAFAFU9DkAbk3sP9XynpKbm5u+eo8U6ZMYd9du3Ztvi4uJ9pGyG9Qdjy7RYG0tDRauHChEoF5XkVPT48GDRqkMVqO7du3sxeIiYkJ7d+/nwDgyZMn7PP8xl9++ukn5ryEAP6ZM2dYrEwsFtPKlSs1EpyPiYkhb29vFemV3Er58uVpypQpxeZ4Tp06pUIeB4Dat2+fo5R0TpBKpWwnv6GhYb4WTA4ePKj07FUy48nR89OPXVxcimZnfFxcHI0ePZp5ScViYQ6ysVKWhRGKubk5BQUF5XuIm5GRwRj39PX1qSDp4hzH0c6dO1VkWCEfhu7fv79Ipi8AT3shxI+E0qE5aPEY1Zu8aRpoSBdlbSBzc3MKDg4ucKflOE5Jl6pGjRp048YNpXPNnTuXvYnVlcF5/vw5iz98//33St959OgR2dnZsTq9vLwKxQl97NgxpdGBnoTnZFkzUdWGK31APb/MJImCfIqXnUSyNpCamprtyirAxycLKrWiSFIvZ1DMF96/f0+DBg1SIrUDeEUGywo592NTU1MKCAgoeiXOyMhImjp1qkqwNmtxdHSkVatWFWprwvv371k91apVy/f0Ii0tTYn4evTo0SqjC2E4mx3ht6YQHh6u9Eb+rrP6Q9klXrw8j/DdGTNm5NvpJCcnM8IogOf5yc6WSUlJbCTr4uKi1kuib9++/Nsyh6lYTEyMUnytU6dOBeICXr9+vZKjmfGt+jac1D8zhigWiykkJERr9/rVq1c0a9YsleesTp06NHToUPb38OHD830f5Rr2BIDkuT4FxuPHj2nKlClKKQ3ZFQcHB1q9enW+dNG0Ao7j6OnTp7R//35au3YtLV++nDZv3kzHjx/XiDSLgCtXrrARSn6FyORvXAJAoaGhBGTGTwRHJBQDAwMaMmSIxvV2zp49y5yNhbn6nSRrads0s61+fn5qt/G///5TessOGDAgV60rReKmvBK65LzHBCDXJMH09HT64Ycf2LF2dnb5igHIA9kEFE6uqG71TKezfft2jd/nrNK5IpGI3N3d6dChQ8x5K45Q5E5ULdy9e5fFJjVJDCf043379lFQUJBSP/748WPxOpnigqIulJyqMk8oSqTIVQlUcOXKFRo+fLjKlEtQ6CxsQtP79+/Zm04T/NBft85sY9aci+xw48YNJYXKOXPm5Pk1iNxHAAAgAElEQVRW5TiOOnfuzLe5SpUc80fS0tLYdKl58+Z5joY4jqOVK1eyKXnFihXVmt5cuXKFsQU2q1t4G9rb8LYwNDTMd75RViQlJdHGjRtVcpDMzMxo/PjxJGfPVELWUIGc5D5XxMXFMcnkvNJFdNAQFJUv83rzRkREsCXD9u3b5xmn+fDhQ7ZJV4IGeUGlWIVpjKF+4TuKUIRMbUtLy1yngQcOHCATExPWufIzjbh//z57U+fkrIXlXpFIlK/42pEjR9iqkp6eXq5yQampqdSoUSMCQDWraM6GlhUyXywFieE9e/aMfH19VVQV7O3t1VoVi4qKYi8Ca2vrXPOVOI4jYdoqkUjo5MmTOmdTFEhLSyMXFxfWgXIKur17944tGdaoUSNfyWdSqZTCwsLYG14oYrGYevfuTSdPnlR73i3vhATwcRhNdRZskDuwXJxBQEAAG0lUqVKlQBI306ZNYw951lya169fs+H9kCFD8n3u27dvKzl3X1/fbIORa9asybwPGrQfNmTe2/zINp84cYJ69uyptHAiFoupV69e+XYE6r4UFy1axOqS/65DUeHNmzdMA8nGxkblDZ+RkUHt2rVjTqkweuIPHjygCRMmqCxnNmjQQK0g2sCBAwkA1bPWfGeZNpBvi7m5uVJQPi0tjRRT3R0cHAo8OouPj2crQu3bt1dytMK1mZmZ5ZhynxeioqLoyy+/ZG3t2bOn0rVwHMemER7tNG9Dt5aZo5y87LBmzRqyt7dXeg4qVqxIvr6+9OzZswI/Y4qBcHlsRwknT55k00n5KEeHosa5c+fYcL9jx45Kb4YJEyawG1gQZc/skJCQQOvWrVNR+zQ1NaWxY8dmm9MTHR3N2rjCRwtv5w2Zy71btmwhoU7B2QK89lNh807kgXYCQDt27CCAX3ETPlu+fHmhzp+SkkJC9jfAS8cK8QnFerRhP8VRzvXr11Wu4+HDh9mKLzZt2pQ2bdqUa+BdXXAcRyNGjGDnlq9CAVDei9WgQYPPfs9fsUJRnF14M8hjFARAWBHRKDiOozNnzlD//v1VtIE6dOhAe/bsYc5PKc1fS52l/RdgU5r79++zPWgAaPLkyRpJ7ec4jjkxa2trio2NJQcHBwL43f6ayGHiOE5I+ScAZGVlRREREYLAnEZjN1mLoJEtOE6ZTEaHDh2iLl26KOWp6Onp0YABAygndsTCIDk5mVq0aEEAn4h59+5dSk1NZbvNTU1NCx3cLkkolcRI8jcD/vjjDwBAQEAA/P39kZKSAmdnZ5w9e7ZwhEB54NWrV7RhwwZs3LgR79+/Z5/XqFEDXl5eiI6OxsqVK2FXE3g0RzttmHUO+CWErzMxMRGfPn2Cnp4egoKC8MMPP2js2m/evEktWrSATCZDp06dIBBrnT59Gh07dtRYPbt376ahQ4ciJSUFRkZGsLe3x7///gvPjsBOT03VooyuvwHHLgEeHh5wdXXF2rVr8fRpplaJpaUlxowZAy8vL9SsWVNrz1NkZCS1bNkSMTExsLOzg4uLC3u2d+/eXWbI5xMSEqjUXkhycjK1adMG169fh0gkAhHBysoK169fh7W1dZFpA+3duxeBgYG4ePEi+1wsFoPjOPT8Ejg0TDt1//EcGLYo829jY2MMGjQIderU0XhdR44cUbq+Jk2awNNT817gzZs3CAkJYTSZADBvGDD/S41XBQCYdBJYuSfzfglo1aoVxo8fj2+++UZJjkWbOH78OH399dcgBW5fX19fLFu2rNT20ewgSkxMJFNT01J5Uc+ePaMGDRogIyMDIpEIR44cQbdu3YrlWi5dukTTp0/HuXPn2MM7pAuwrZ8WK/1Bi+cuIVjuDUxpqp1z/xQB/BjM/y4SieDk5ISAgAB89dVXxfIMjR07lgS617p16+Lhw4fQ09MrlX0zJ+iVVmcDABs3bkRGBq9TQUQIDAyETCYjiURSZNf0+vVr2rBhA3r37o1375SlLlLTi6oVQIUKFVCtWjWIRJq/9JSUFERGRrK/a9asydQBNI2oqCh8/PiR/Z2WoZVqAAApClJIRISIiAj07dsX06dPp3HjxsHW1rbInqMPHz5Qy5Yt2d+RkZEIDw8vquqLDCrKm6UFe/bsof79+wMAWrRogevXr+Po0aP46aefiqT+8PBwCgwMhK2tLaRSKfu8Y8eOMDY2xpEjR/AySnv1L/0XmAaeMT8tLQ2fPn1CkyZNsG/fPlhaWmqso8hkMmrVqhUiIyNhZGSE1NRUiMViXL16FeXKldNYPYmJiTR48GAmd2JmZob4+Hi80KJc0Ut5+K1169aoXLkyjh07hpiYGCxZsgTLli1Dnz59yMfHBx07dsxTYbQwkEql5O7ujpcvX8LAwABWVlZ49eoVBg4ciBcvXlCtWrVK7aAgK1RUG0oD7t27R4IMRvPmzXHu3Dl88803AHhFSfkqkcaRmJhI69atIwcHB2rfvj327NkDqVSK8uXLw9vbG/fu3cPp06dFHh4eAIB/n2ijFTwuy/XOOnTogAkTJgDglQKcnJygyVWNjRs34vr16wB4BQaRSIQXL14gICBAU1Xg5cuX1KZNG4SFhQEABg8eDEEh9LIWdWoFG7q5ueHYsWOiR48eYeLEiTAzMwPHcThw4ADc3Nzg4OCgVY202bNns2D8qlWrcPToUZQrVw7R0dHo168fNMIZXAJQKrnD4+Li2B6eypUrs8S2hIQEtmRrZmamUR2rhw8f0oQJE8jc3FxpOdze3p7WrFmjkiMhpy7V6rK4sKQr5yTGunXr2HK9ubk5HT9+vNDXHx0dzThtevfuTQAgbMI0NDTUCC/KpUuXWDKnSCRirHhCDpBYg5zaOeXhHD58WOk6EhISmJolFO63mZkZTZw4UaPkU4qbZeVJmwAAed4TAYXfGa5DAcFxHPXq1YuQw76Sx48fM6fQsGHDQiVLyWQyCgsLU8nJkEgk1KdPH/rf//6X47k5jqOWLVsSIN9wqeGOsnkaWAd98uQJa8fJkyfZ9UskkjxlXvKCQKRvZGTE6CQVnZD8XhQYO3fuZFw6gsyM8L/4+Hi252rmYM3b0Lsvb8MqVarkuPOa4zg6deoU9enTR4UHqmvXrnT06NFC5Tvdv3+fXWOLFi1UNgtPnjyZ1VcQ7hsdCon58+ezGyDfPKiCw4cPMwfRr1+/fHOOREdHU0BAANna2io9YJaWljRz5ky1d+oGBwdrbZRTz5o/b/fu3VXakjUJ0MfHp0AJelevXmWd7Mcff1T6viJ5d0HpQ3/66Sd2n6pVq5Ytc9348eMJ4BkmNW1DgdxMTkqWJyIjI2n69OnM2QqlXr16tGLFijxVGbIiISGBMVJWqlQpW37g9PR0lnhpYGBQqK06OuQTR44cYR1Azk+cIwTKS+TimLLi6tWrNHz4cEYaL5TWrVvT1q1b880/kpKSwjq+JvdTTeiXObo5f/58tm3Kus3B3d09Xx2C4zhydnYmAFS7dm2VN69UKmVaSPXq1cuXbVJSUujbb79lbWvevDllJxUM8J1c4BLq7qw5G37VjK+7QoUK+SZ1S05Opi1btqiwN5qYmJCXlxfdvXtXrfMJHNtisTjX6e/bt2/ZnraaNWtqlGtKhxzw+PFjqlChAkGeUp9X8E4mk7Gpl1gszlHULS0tLVsyLiMjIxo2bFih3yjnzp1jb/EeLoXvKBumZrZRPtzOEWlpaTRy5Eh2fKNGjdSOuSjyDwmcx1mhuBtermKaJ969e8ccGcBvSExMTMz1u4rbWPLD8pdTGdcn04Zbt24t8P3lOI7OnTtHnp6eSqRbAL/Hb//+/TnScS5dupQdq47q6z///EP6+voE8NzgRU7z+TkhMTGRBYPNzc3VDth9+vSJ6tevz4asirt6BRrIrIoJtWrVokWLFmn0LSLwBAOgboV4S6/wyWxn8+bN1do8yHEcLV26lDk9CwsLOnfuXK7f+/TpE7PL119/neuxw4YNI4BXl8yL5P3WrVtKlBTqUqXKZDKmKAHkTd6fWxnTM9OGgwYN0pji6uvXr2nu3Lkqz5ONjQ0tXrxYiXr19OnTLLjfq1cvtdug6Hjzw/hYJpCRkUEnT56k+fPnk4eHBzk7O1Pz5s2pXbt2NGTIEFq9erXGZF49PT3ZFOLgwYP5OuedO3cYCdUXX3xBx44dIw8PD6XNlyKRiNzc3OjAgQNa0TLiOI4UFShqWOa/o3RplfkQf/HFF/mWcQkLC2N2MDAwyJUDRthxb2BgkKdzf/fuHdtNLScbyxaHDh1iwVEDA4N8a1GnpKQIzo8AUAu7/NuwsW2mDfv161coMveckBN9rZGREY0cOZKOHTvGGCDVUeNUBMdxAvcQAarKtQVBWloanThxghYuXMj6ccuWLcnV1ZVGjBhBQUFBdOPGjeKTwo6OjqaFCxcq0VbmVpycnCgkJKTAu4qXLVvGzpU1cKkutm3blm3bBBpITS6f5wRhR7Ti0PuLeqCNvrl3kn7tlCU63N3d8+1sBNy4cUOJ+N7Pz0/Fwd66dYs5Y3XfoitXrmTnzG7l7tdff2WxNwsLC/r7778L1P6UlBQSRlRC6eyYu/3+nJcZrxHK2LFjteJssuLy5cs0ZMgQFUlqgE8pyKqYoQ6SkpKoWbNmBBROOfbt27c0d+7cPAnUhdKiRQvasmVLvvjEC429e/eqKh5U4cmRpnzDC+R59+WJjbLKTLRu3TrfW+xPnTrFHv4ePXrk28s+ePCAfHx8VPhMqlatStpM4soN165dU+G/BXjKy2Z1QS3tQLZVeckOxf+bmZnRxo0bC/2mefv2LbVu3Zqd18PDQymGIgSaa9SokWdsRUBGRgab8jZs2JB15vT0dFIksW/YsKFG8nbCwsKoWrVqKjasYcmPfJrXl6vEZvm/jY1NjrE8bSIqKooWLFjARphCqVatGv3000/5JjB7+vQpozbNb+oHx3H022+/qeST1bAE9WnDa1TN+g403oOnP8naj5s0aaK2fFCBIZVKlR4cA33QyG7qDWM7tlD26ury6iqSD9WrV0/toadUKqX9+/eTm5ubCp+JML+WSCRa4TVRFzKZjI4dO0bdunXLVuNLsQiJhZqU6EhOTqZvvvlG6e31+vVrQcWAgEyyLXUhJ0MnAPTrr79STEwMIwoHQF26dMn3snFuSE1Npa1btyo5z5yKq6sr7dixo2jfzlmgGIQX6G+Foq+vT4MHD6aLFy+q/UI5evQoe7779++v1vdSUlIYNzLApwWM7a1eP1Yk75dIJLR69Wrt2FIqlSoNY1vZq9fArEUgrRaJRCSf4uRqGCFpzsTERC2VzA8fPtCiRYtUSNCrVKlCs2fPplevXlF0dDTLralSpQq9fv262B5AAfHx8XTq1ClavXo1zZkzh/z8/GjJkiW0e/fuHJeKNQGO44QpKhv1CaNXuaPINwTaURMTE6pduzY7t7e3t1ZXVd6/f08HDx6k5cuX08yZM2nWrFm0YsUKOnLkSImQObl69SpLtWjXrh1lZGTQv//+S6NHj2ZJj0JxdHSkP/74Q600A8XUD/mqV47IGgPr1KJg/biGZWZbf/31V83bdvr06ayC/Ii3ZVcEeQ6RSJRrlq4iJ68i5WJ2uHz5Mg0dOlRF5sXZ2ZlCQkJU3mrXr19nN9/JyUlj2j6lFaGhoUq2k0gkBZZBfvXqlVIOk0QiIfnKymeL6Oho9hKsXr06vXv3TskeHz9+pKVLl2abZCq8KHM6t0wmExI/SSwW0+nTp7M9luM4EhZeADkfdiH6sVPDzHZqVFDw/PnzbNg2qFPhGikUIUPWxsYm22mCPBWfNwyvGqCCnCRUjYyMaMSIEXnOMRWDyPLU/c8aO3fuVLLjwoULCxQr2rhxo9Lqn1begKUIMpmMqX/o6+vnqpwhqIW4ubkp3QuJREL9+/ens2fPZntPYmJiqE6dOsxJZeegFHmpC+tshCJIFZmbm2tmJC6VShljft3qmmmkUIRVF3naOsP58+dzTW568eIF+fn5qQSua9euTUuWLMnX6o2QMg/o9qgInUJxBW3IkCFqj/5kMhkp7vkR7mGzZs2KTLe9JGLWrFnMJvkZ6d27d4+8vb2ZDI9QmjZtShs3bqSkpCSlc928eZNNzbKO2mNiYliAuU0TzfZjQX5a2NRbKMjzXfiiwUZiQ6bESbly5Sg2NpYAXo5WWHmoVauWkvM4efIk9enTRyV3xt3dnQ4ePFig3Jn09HRq27YtAXxeiDrqh2URe/bsYTbdsGGDUoLdl19+maemV3x8vNJ32rZtS4r615/rlCosLIzNDgqi2wXwrAirV69mzAhCyU6eRlFAwMvLi30eEBDAvwT0NN+PAydmtqnQdChdunQhAOTYQPMNxQZejB4ArVixgtLT08nV1ZVNi65du0aCFpCwuU0o5ubmGqMHUNyjYm1trTK/LutITk4mGxsbAviVHI7jSCqV0tSpU5m9bW1tc4zpPH/+nJo0acKOHTZsGIuZCashFSpUyFUdtCzi0aNHbNm5WbNmhZaTkclk9Ndff1H37t2VVl5FIhH17NmTTpw4QRzHkeKoPTg4mDiOY7Ghoe7a6cdVKvL1yZNFC4bExEQ2mtg8TTsN7deOb2iHDh1o3LhxzFCLFi2icePGsaxUoTRp0oTWr1+vdm6Iurh48SKbArRr165IEsJKCuS7pEksFqskoW3cuJFNscqXL09Hjx5V+v+FCxdY0phIJFJRhIyMjGQB5M+JyyUxMZHpl1WsWFEjeUeKePLkCU2ZMkUlj6ZBgwa0cuVKtk/N0NCQ/vzzT63NUoTi68mfX/7iKhgUcyq01dC1k8EMI9SVNXtZm1pAitiwYQOrMyfp3LKGJ0+eMNvLNdtVcPr0aTb/F4vFtGrVKuI4jrZv386+a2JikmOKvbBsKxKJ6NKlS5+FXRW34RSUtkMdJCYm0vr161nCpVBMTU3Z7nqBRsPUWHv9GBsy61Y3zUSFK3X9+vXk5eWFiuWB2GUatFJW5KA4ULVqVXz//ffw8vIqMrmX0aNH0+bNmwEA27dvx+DBg8sMh2x26NGjBx0+fBgWFhZ49OgRKlWqlO31Pnr0iHr06IFHjx4BAFq2bIlr164BAKytrXHo0CG0aNEi2+8mJydT48aNERkZiVatWiEiIgJFSW5f1Fi+fDlNmTIFAODv7w9/f3+tXyvHcXT27FmsWbMGBw4cUJK6EeDUCLg0UYuNkPfjM2fOoEOHDnleswqn8YcPHwAAVStpuGF5wNXVFaGhoXj58iV+/vlnUVE5GwAIDAxE69atAQCjR49GQfa5lBYcPnyYDh8+DABYuHBhjs4GAOzs7EQRERFo3749ADBn07x5c1y+fDlHZwMA5cqVE61cuRIAcOXKFQQHB2vsGkoawsPDafr06QCA7t27Y968eUVSr1gsFnXo0EG0b98+UWRkJGbOnInKlSsrHWNqpN02SOQeRFEQMjeoOBxBiEsLaiO5N0QshkQiKdpK5TAyMhLt3bsXlpaWSElJgYeHB0pClqqmkZqaShMn8q87R0dHjB49Os/vpKWlISkpSemzpKQkJCcn5/ndnj17omvXrgAAPz+/MmnT169fk6enJ6RSKerWrYuQkBCtKjzkBD09Pejp6an0ITMT7dYr+AlFAb/coOJwBA/5PlZzjcoNVlZWAHjFAU9PT9SqVQv+/v75ZmIrLGrWrCnavXs3JBIJIiMjMWjQIJQ1oqOlS5fi6dOnEIlECAoKynOKc+PGDWrdujWuXLkCAOjcuTPEYjEePXoEJycnhIeH52ofsVgsWrVqFQwMDBAdHV1kb/6iQlpaGg0YMABRUVEoV64c9u3bh4oVKxapsxFIwGxtbfHzzz+zkUbNmjUBaL8fS2X8TwsLC7WOV3E49evXBwBEx2muUVmxWS6fYmRkhGfPnmHXrl1o164dAODt27fw9/eHjY0NPD096dy5c0XGx9G+fXvRsmV84OrEiROYO3duUVRbJHjx4gUtWsRrA48YMQJOTk65dowDBw5QmzZt8OrVKxgaGmLbtm04efKk6ODBgzA1NUVMTAw6d+6MLVu25Hpv7OzsRL6+vgCAdevWlanp6uTJk5kE8saNG9GsWbMicTYpKSm0ZcsWat68ObVt2xY7d+5ERkYGTE1N4e3tjfv370Ow+d3nRdEiXim0QPj06RNb798+RzuR7SFdwPI/FOu+desW/fDDDyzSLpRmzZrRpk2bVLIstQGO45Q4d+UyHqUe/fr1Uzs3JiAggO1kr1KlCsnpRBmysvf5+vrmukEzMTGRrUIKOT8auKRihZyelACeqL4o6nzx4gXNmDGDKleurNQ/7OzsaNWqVUrbheQrg1pdbZ4zhD+/lZVV4e5pmzZtCJCTF2mhoUYGfENz4nONjY2lFStWMIpQoVSoUIGmTJlCjx8/1uoNViQ6MjU1VZsYu6RCLqdDAHKlFkhPT6cRI0awYx0cHJjuV1ZERUWRi4sLO7ZXr165cgwpZiDnxRhQ0nHjxg22ncDV1VXr+VuCVI1itr1YLKbu3bvTX3/9lW1nl8lkTO9LXRqK/JZaVtBMrpU2k4YWjOLPa2BgkGfqvJBl2aNHD5Usy65du9KRI0e0QgsKKBMd2dnZaZTPpSiRnp7OMrabNm2a40gkOjqavvrqK2bjbt265UnulFWBoVmzZjlyG3McRx07diSAp8PQJMdPUUJxw2TVqlW1FmtMTEzMVoyvQoUKNHnyZCU9spwg8GkbG2q+H2+dldmm7CR+8oW0tDRGFNSsrnZGN4oqg+rg2bNnNG3aNOYEhFKnTh1atmyZVrhP/vrrL+boevfurTXnpk0oKgTkRO+ZVctq0qRJanPYcBwnqH+yTphTot/du3dZBrN8C0Wpgkwmo65duxLkiakFpUvNDY8fP6ZJkyapZBM7ODjkO9v+3bt3bCSmSZkdbABVNuPbVVD+JBXI5U8JkGshaaCRLez481lYWOQ5uskJSUlJLGAGhRtibGxMo0ePLhBXbG6QS6AQkCmrW1rw33//sW0igwcPzrbtJ06cYBI8enp6tH79+gJd465du9h2BiMjoxxZAwVCeT09vVI3VZ03bx57FuRczhoBx3F09OhR6tq1q4rKq4eHR45cN+pgzZo17Hy/jtNMPxZI/Y2NjTXLCT5q1CjW2MJyabg0znQOipKuBQXHcXThwgX69ttv2X4oobi6ulJoaKhGaCU5jmPUjCKRSGVfUUmGMN0pX758tkP/tWvXshFHhQoVciVGUweXL19mcQMA9NNPP6nEF+Li4tgxHTt2LDUB5EOHDmXyQw0apJE2x8XF0cqVK1VilZUrVyY/Pz+1VV5zg0wmU+LZWeFTuH7czTmznatWrdLsvUtJSaFu3bqxCgoq5iYQbwF50yEWBO/evaOff/5ZhS/WysqK5s2bR2/evClUnXFxcWRvb886piaC1jKZjCIiImjZsmU0atQo6tGjB3Xt2pW+/fZbmj17NoWFhRWK6F0+3M/W5lKpVGl3cb169TT2pnr58qWSKuWgQYNUlDsVSdDyYnXMDampqXTixAmaP38+DR06lLp160bdu3enYcOG0YIFC+j06dMaCeg+efKEjQKbNGlS6NXSu3fv0tixY1U4b1q0aEHBwcEq9iosYmNjlQjrCsre2aROZlt9fX2187JISUmhnj17sooqmPIKDeo0cHDnTAUCkUikdRa49PR02rNnD7Vv317pRipuBC2okR48eMCmJ02aNCnwzvWPHz/SL7/8ouIcsytGRkY0fPhwunXrVr7qkkqlTB1CUUkB4J2nIr9t+/btNR7/SkhIoD59+rA6nJ2dleg/OI4jYSU0PwoRAiIjI2nSpEkqihzZlYoVK9L06dMLzEyXlJTEaDjMzc0L/LIRCP6FwLlQ9PX1adCgQSqpB5rGp0+fGA0MALKqCPp5lHr9eGS3TEoZADRz5kztjkxlMhkFBgYq5cdIxKDWDXlJiWVjQUGTQAtHg4Z9DapfQ/mm161bN0/FR03j9u3b5OXlpSLPIVBdFGT0cODAAXYeT0/PfBt9586dbBevUCzMeWmdYV+DRnUH9XYF2dVU7TgTJ05Um1tFvvRNAEi+JA6AD7wL9AkAaNSoUVpb0pXJZDRjxgxWl42NjZI44o0bN1iuj5wdL09IpVJatGiRyhTaxooPio7sBhrRFdTVCWSdRSrG2NiYVq1ale/AvzAtLYgQI8C/YAICAlQI/qtWrUo//vhjkWbUp6en04IFC5TspyfhKUPH9gYt9+aJtRaN4WmFs/bjGjVq0LFjx4quHz99+jRb+sOciq2tLQUEBGicxyY/+PTpE61atUqFOc3c3JwmTZqUbzIvgUcGAMmF+vJEWlqakmqigT7fMfJ6s/zyvbLGUoMGDfJs7/v379nwX57sB4CncBXoWcVisVamttkhODiYPeCmpqZ06NAhVq+3tzdvDzVUPj98+EBffvkls0UFU/W0xicPAJUvl2nDTp06qZ3iII9REACS33e1cePGDRo5cqSKMoOLiwtt3769WLmX7t27l61qRE6lRo0atGDBguJLDYmLi6OtW7eSl5cXOTs7U61atahq1apUv3596tixI/n5+dGxY8dKlOi6TCajEydOUK9evZRWAgBe0fLQoUNqtVcqlbKlUbFYTKdOncr1O+np6Up6QC6N1RvGKpaJ/TPbam1tnWsOxsiRIwngKVyFoOPWrVsZh42pqWmB3tSFwdmzZ1l2rDC15jiOPn78yPTHunbtmuOIMTo6WklA0LNj/m3Y88tMGzo7O+eZB6TIsf3111+rNTLKyMigHTt2sOmiUAwNDWnYsGF09erVEtMfAD6nKDg4mLy9vcnZ2ZlsbGyoatWqVLt2bXJ3d6fZs2fT4cOHP2tuao0gMjKSZsyYoTK9sbW1VYuQPSYmhuWtWFhY5LqaoJi56903/x1FsRjqZ05Psou7REREMGe6YMEC4jiOZs6cmeO0pijx5MkTFngHQN9//z2lpaUJJGztlgcAAAiCSURBVPYEgMLCwlTalpaWRo6OjuyYdVMKbr+lYzPvdfv27XN8wShybNeuXTvPGNe7d+9o/vz5jLJWKDVr1qRffvmFPnz4oOuwOvAkUcHBwUx4TyiC+HxukjO3bt1iMS1HR8dsVxYUYz6aSi/X1+PP99133ynVJ5PJWMesV68excTECFMqAnhG/+LmbY6NjWXSKQCfNPbhwwe2glK7dm2VOJVi7sv6Qjib7JxOdosY6enpbIRibGxM169fz9FmERERNHjwYBX98Pbt29OePXtK1AhfhxIEjuMoIiKCvvvuO5WHx8XFhUJCQrKVTVHcAjJixAilKUFcXBzj/W1ppxlngw2ZW0MAKNFYKlKlbtu2TcmJDhw4UONLrQVFRkaGEo91/fr1ac+ePWxkJqcmBcAH/oU8IXViXuoWgVPbyMhISf0AAOSE4ASAfv/9dxWb5aSLVq5cORozZky+VxR1+MwRFRVFCxcuVOFYrlKlCs2ZM0dleVXInAVAa9euZf8TMjwlYs11FKF8UY+vT773CR8/fmQxkrZt2yotufv7+5fIDrBmzRq2SlWxYkWW72VkZESRkZEEZMajqlbSvA0rluftI9fUAqAst5KV6/n169c0e/ZsplEvlDp16tCvv/7KJI90yB1llmO2sMjIyKCDBw8iMDAQZ86cYZ9LJBL06dMHPj4++OqrryCTydClSxecOXMG+vr6CA8Ph4uLCxo3boz79+/Dox2wb7Bm2xb6Gvj2Z/7327dvY+3atVi3bh309fWhp6eHlJQUGBkZITg4GIMGDSqx9/jYsWPk6emJ+Ph46OnpwcDAAMnJyejbty82b94Ma2trpKamYsEoYE5rzdY97QywdAdgbm6ON2/e4OnTp3BxcUFycjKcnZ1x9uxZGBoais6ePUsCZ7BUKgUAiEQidOnSBT4+PujWrVuZ5mrWNHSGUgN37tyhtWvXYuvWrUhMTGSfN27cGN7e3ujatSvatWuHV69eoWrVqggNDUXHjh35gzZop01V/Hg2tzFjxmDz5s1KBNpWVlYICwuDs7Nzib+/d+/epR49eiAyMlLp82nTpmHp0qXQkwDStVqqXE4AHhISgh9//BFPnz6FlZUV/vnnH5w5cwaBgYG4efMmO7x8+fIYPnw4vL29YW9vX+JtWxKhM1o+IE8HQGBgIB4+fMg+NzMzQ7du3bBv3z6kp6ejfv36ePz4MQz1gbRA7bTlmx3ArjNAxYoVERubySPZtGlTHDp0CLVq1So19/b9+/fk4eGB8+fPs8/Mzc0RFxcHxwbA1Snaqbf+z8Dj10C9evXw5MkTSCQS9O/fHydOnFCyqb29PXx8fDB06FCYmZmVGruWROiMVwBwHEenTp1CUFAQDh48mK08BwC0bghcnqSdNiy5AUxfr/xZz549ERoaivLly5e6+5qamkpjxozB1q1blT7/oRewobt26hy0C/jzVObfIpGIkYGLxWJ0794d48ePh5ubW7EQo5dF6BV3A0ojFB++58+f0/r167Fp0yZ8/PhR6biqFbXXhunNlf+uVasWi3/IdweXKvTo0QNA5mhDQJ1q2quzTnXlv4kIFStWxKhRozBu3DjUqVNHdOjQIe014DOEzuEUEra2tiKA3+S6a9curFmzBlevXgWgfYkORbx48QIvXrwougqLCHpaVA7SVzi3g4MDJkyYgMGDB8PExISR6eugWegcjoZgbGzMRj3u7u50/PhxxOct3VRgbHsJDAE/9P/hhxxkTEsxduzYgdjYWK3aUDh3o0aNcOfOHdGYMWMwZswY7VWog87haAOurq44fvw4bj3VXh035bMOBwcHrFu3rszFF/r27Uv79+/nbeiinToEG7Zq1Qr37t3TTiU6KEFFl0qHwqNly5YAgOfvtFfH5QfKdZU1CNd1+b726rj6ULkuHbQPncPRApycnKCnxw8eV9zWTh3n5ed1dXXVTgXFjDZt2gAA3kRrr444uYJxWbVhSYTO4WgBFhYWIg8PDwDA2gOaP7/fWYDj+PwfT09PzVdQAtC2bVvY2dkBAAb8qfnzu2/mfzo6OqJ58+a5H6yDxqBzOFqCt7c3AD6xbNUdzZ571V7+57Bhw0plzo06kEgkonHjxgEAdodr/vzHebl0eHt763JsihA6Q2sJcrUHhIWFwdgQSFmtmfO2CeSnU5UqVcLdu3dRrVq1MnsPk5OT6YsvvsCjR49Qpzrw7EfNnLfaLODtR6B58+a4dOkSDAwMyqwNSxp0IxwtQSwWi9avX49KlSohJQ2oMafw5+y3PTN2ExgYWKadDQCUK1dOFBwcDJFIhGf/AS4acNpfLOWdjb6+Pn7//Xedsyli6ByOFlGtWjVRaGgoDAwM8PoDUHNuwc/VPRjY+zf/u7e3NwYOHKiZRpZwuLq6siS8i3eBVisKfq6mS4B/5UvhQUFBaNasmc7ZFDF0DkfL+Prrr0X79u2Dvr4+Xr0HRF7A1NPqf3/rC8ByBnAkgv/by8sLq1ev/qziDlOnThUtWbIEAHDlAWAyMX+rf4uuAYY+YHlR69atw5gxYz4b++nwGeKff/5R0u821Ad96wYKmZ09QdS0gaCaVTKJngwNDWn58uWlUt9cUwgNDVXSlq9kBhrXJ2eSrTE9QWYmmTa0tLSk/fv3f7b20+EzQ0JCAk2cOJFpcKtbOnbsWOp0uLWFN2/eUP/+/VWUN3IrEomEBg8eXGA9ex10KNX48OEDLV68mJycnEgikWTbSWrXrk3e3t65knh/znjy5AnNmDGDGjVqlK39RCIRNWnShGbPnk3Pnz/X2bCEQDePLWYkJyfTkydPEBUVBalUikqVKqF27dqoUqWK7t6oidjYWHr27Bk+fPgAkUiEKlWqoE6dOjA3N9fZUAcddNBBBx100EEHHXTQQQcddNBBBx3yif8Db5PAyU99/C8AAAAASUVORK5CYII=;fontFamily=Times New Roman;" vertex="1" parent="1">
          <mxGeometry x="180" y="581.72" width="154.38" height="70.67" as="geometry" />
        </mxCell>
      </root>
    </mxGraphModel>
  </diagram>
</mxfile>
